<svg width="336" height="356" viewBox="0 0 336 356" fill="none" xmlns="http://www.w3.org/2000/svg">
<path d="M120.899 267.222L94.4206 279.411C95.1207 279.061 123.509 261.177 123.509 261.177C123.509 254.586 119.013 245.12 111.606 243.832L115.33 238.74C111.303 233.043 105.342 229.005 98.5578 227.377L82.709 247.428C80.6541 240.418 76.5137 234.203 70.8383 229.605C66.9987 228.603 63.2837 227.173 59.7632 225.342C58.2557 231.342 56.455 235.841 56.0782 240.618C55.4082 248.929 55.5539 266.748 58.3696 273.783C57.7331 276.361 50.5406 307.104 76.2552 307.135H121.663C124.916 294.044 123.984 280.295 120.899 267.222Z" fill="#3787FF"/>
<path d="M208.577 109.308H135.443V70.8618H208.577V109.308Z" fill="#3787FF"/>
<path d="M193.555 144.473H150.245C149.072 144.473 147.947 144.939 147.117 145.768C146.287 146.598 145.821 147.723 145.821 148.896C145.821 150.07 146.287 151.195 147.117 152.024C147.947 152.854 149.072 153.32 150.245 153.32H193.559C194.731 153.32 195.857 152.854 196.686 152.024C197.517 151.195 197.982 150.07 197.982 148.896C197.982 147.723 197.517 146.598 196.686 145.768C195.857 144.939 194.731 144.473 193.559 144.473H193.555Z" fill="#3787FF"/>
<path d="M76.7259 169.111H50.6294C49.4562 169.111 48.3309 168.646 47.5013 167.815C46.6717 166.986 46.2057 165.861 46.2057 164.687C46.2057 163.514 46.6717 162.389 47.5013 161.559C48.3309 160.73 49.4562 160.264 50.6294 160.264H76.7259C77.899 160.264 79.0243 160.73 79.8539 161.559C80.6836 162.389 81.1495 163.514 81.1495 164.687C81.1495 165.861 80.6836 166.986 79.8539 167.815C79.0243 168.646 77.899 169.111 76.7259 169.111Z" fill="#3787FF"/>
<path d="M276.491 141.483H251.127C250.539 141.472 249.954 141.578 249.408 141.795C248.861 142.012 248.363 142.336 247.943 142.748C247.524 143.16 247.191 143.651 246.963 144.193C246.735 144.736 246.618 145.318 246.618 145.906C246.618 146.494 246.735 147.077 246.963 147.619C247.191 148.161 247.524 148.653 247.943 149.064C248.363 149.476 248.861 149.8 249.408 150.017C249.954 150.234 250.539 150.34 251.127 150.329H276.491C277.079 150.34 277.664 150.234 278.21 150.017C278.758 149.8 279.255 149.476 279.676 149.064C280.094 148.653 280.428 148.161 280.655 147.619C280.883 147.077 281.001 146.494 281.001 145.906C281.001 145.318 280.883 144.736 280.655 144.193C280.428 143.651 280.094 143.16 279.676 142.748C279.255 142.336 278.758 142.012 278.21 141.795C277.664 141.578 277.079 141.472 276.491 141.483Z" fill="#3787FF"/>
<path d="M62.9457 218.722L67.433 222.286C67.433 221.522 67.4967 220.758 67.5285 219.933C65.9469 219.772 64.4004 219.363 62.9457 218.722Z" fill="#0C1523"/>
<path d="M42.3549 206.695C41.782 208.666 39.0049 219.966 48.338 225.884C47.4469 226.266 43.0232 229.386 42.643 229.673C38.6457 232.627 35.1602 236.217 32.325 240.299C26.501 249.051 25.8008 262.163 34.7437 269.134C40.6631 273.715 51.42 274.099 57.053 268.631C55.7279 259.369 55.4078 249.99 56.0982 240.659C56.4801 235.756 58.2623 231.557 59.3444 227.036C61.7949 216.907 60.1735 214.263 57.9123 208.611C53.6159 207.563 55.1435 202.471 58.1032 204.188C58.5183 204.459 58.9836 204.643 59.4717 204.73C61.0948 196.456 64.2454 195.853 67.1097 198.523C63.016 193.148 46.3112 193.178 42.3549 206.695Z" fill="#0C1523"/>
<path d="M119.785 263.467C97.5713 277.606 95.7857 278.698 94.3569 279.412L120.835 267.223L119.785 263.467Z" fill="#0C1523"/>
<path d="M213.828 304.426C208.195 299.653 199.925 293.86 192.537 291.696C185.84 293.623 178.738 293.623 172.042 291.696C170.732 295.428 169.898 299.313 169.559 303.254C169.519 303.724 169.58 304.197 169.732 304.644C169.886 305.09 170.131 305.5 170.451 305.847C170.77 306.193 171.159 306.47 171.593 306.657C172.025 306.845 172.492 306.94 172.965 306.939C185.79 306.971 196.929 307.106 212.841 307.131C213.156 307.133 213.465 307.038 213.724 306.858C213.982 306.678 214.18 306.423 214.287 306.126C214.394 305.83 214.409 305.508 214.327 305.203C214.245 304.899 214.071 304.627 213.828 304.426Z" fill="#0C1523"/>
<path d="M252.241 266.015C252.217 265.711 252.1 265.422 251.904 265.189C251.708 264.954 251.445 264.787 251.15 264.71C250.855 264.633 250.544 264.649 250.259 264.758C249.974 264.867 249.73 265.061 249.561 265.314C244.787 270.949 238.995 284.316 236.831 291.697C238.673 298.764 238.804 300.513 236.862 307.134H252.105C253.425 307.26 254.597 279.16 252.241 266.015Z" fill="#0C1523"/>
<path d="M85.3505 78.0229C85.3505 78.8727 85.0985 79.7033 84.6264 80.4098C84.1543 81.1163 83.4833 81.6671 82.6983 81.9922C81.9132 82.3175 81.0494 82.4026 80.2159 82.2367C79.3824 82.0709 78.617 81.6617 78.0161 81.0609C77.4153 80.4601 77.0061 79.6946 76.8403 78.8611C76.6745 78.0276 76.7595 77.1638 77.0847 76.3788C77.4099 75.5937 77.9607 74.9227 78.6672 74.4507C79.3737 73.9785 80.2044 73.7266 81.0541 73.7266C82.1934 73.7271 83.286 74.1798 84.0915 74.9855C84.8972 75.791 85.35 76.8836 85.3505 78.0229Z" fill="#0C1523"/>
<path d="M136.207 281.959L124.463 289.884C126.874 287.289 129.108 284.536 131.15 281.641C131.115 281.671 133.056 281.735 136.207 281.959Z" fill="#0C1523"/>
<path d="M71.5065 218.243C76.2275 221.632 81.8947 223.447 87.7055 223.436H107.47" stroke="#0C1523" stroke-width="2.09375" stroke-linecap="round" stroke-linejoin="round"/>
<path d="M122.681 223.432H116.348" stroke="#0C1523" stroke-width="2.09375" stroke-linecap="round" stroke-linejoin="round"/>
<path d="M123.859 223.432H256.314C259.968 223.434 263.586 222.716 266.961 221.319C270.336 219.92 273.403 217.871 275.986 215.289C278.569 212.706 280.617 209.639 282.016 206.264C283.413 202.889 284.131 199.271 284.13 195.617V187.723" stroke="#0C1523" stroke-width="2.09375" stroke-linecap="round" stroke-linejoin="round"/>
<path d="M284.129 134.258V87.4437C284.131 83.7907 283.413 80.1734 282.014 76.7983C280.617 73.4233 278.568 70.3566 275.986 67.7737C273.401 65.1907 270.336 63.142 266.961 61.7449C263.586 60.3476 259.968 59.629 256.314 59.6304H87.7056C84.0525 59.629 80.4352 60.3476 77.0601 61.7449C73.6848 63.142 70.618 65.1907 68.035 67.7737C65.4518 70.3566 63.403 73.4233 62.0055 76.7983C60.6081 80.1734 59.8893 83.7907 59.8905 87.4437V134.258" stroke="#0C1523" stroke-width="2.09375" stroke-linecap="round" stroke-linejoin="round"/>
<path d="M59.8904 195.329V187.723" stroke="#0C1523" stroke-width="2.09375" stroke-linecap="round" stroke-linejoin="round"/>
<path d="M58.3629 273.781C57.7601 272.084 57.3117 270.337 57.0229 268.56" stroke="#0C1523" stroke-width="2.09375" stroke-linecap="round" stroke-linejoin="round"/>
<path d="M61.805 229.224C64.1895 229.959 66.5186 230.863 68.7746 231.929C71.2639 233.2 73.3084 235.198 74.6371 237.657C78.79 245.337 83.3254 252.804 88.2264 260.03L111.554 243.799C115.978 244.565 119.269 248.138 121.133 252.044C122.561 254.873 123.354 257.978 123.457 261.144C121.72 262.265 99.7337 276.232 96.5009 278.204C85.5749 284.867 77.0609 282.576 70.85 271.362C69.8634 269.579 60.5705 254.59 60.5705 254.59" stroke="#0C1523" stroke-width="2.09375" stroke-linecap="round" stroke-linejoin="round"/>
<path d="M67.433 222.285L62.9457 218.72C64.4111 219.362 65.9682 219.77 67.5603 219.93" stroke="#0C1523" stroke-width="2.09375" stroke-linecap="round" stroke-linejoin="round"/>
<path d="M84.8413 254.908C83.8101 250.541 82.4046 246.271 80.6404 242.146C76.3691 232.918 70.185 229.557 68.6105 227.538C67.5913 225.989 67.1742 224.121 67.438 222.285L67.5653 219.93C68.3155 219.994 69.0701 219.873 69.7634 219.58C70.4567 219.286 71.0677 218.827 71.5434 218.244C74.937 213.932 71.3843 202.522 67.1198 198.512" stroke="#0C1523" stroke-width="2.09375" stroke-linecap="round" stroke-linejoin="round"/>
<path d="M67.1147 198.512C64.2504 195.832 61.0997 196.445 59.4767 204.719C58.9884 204.632 58.5229 204.448 58.1082 204.177C55.1468 202.461 53.6209 207.55 57.9172 208.6C58.8576 210.441 59.5735 212.387 60.0495 214.399C60.9152 218.6 60.674 222.953 59.3494 227.032C58.2623 231.554 56.5019 235.754 56.1032 240.655C55.4186 249.986 55.7387 259.365 57.058 268.627C51.4249 274.101 40.6614 273.729 34.7486 269.13C25.7924 262.177 26.4942 249.043 32.3249 240.298C35.1465 236.206 38.6315 232.615 42.6362 229.67C43.0164 229.38 47.4418 226.263 48.3312 225.881C39.0065 219.962 41.7736 208.664 42.3481 206.692C45.0114 197.555 53.4215 194.654 59.8837 195.266C62.6277 195.353 65.2264 196.519 67.1147 198.512Z" stroke="#0C1523" stroke-width="2.09375" stroke-linecap="round" stroke-linejoin="round"/>
<path d="M123.721 290.586C127.758 287.005 135.736 275.21 138.657 270.654C144.593 278.647 157.401 283.927 171.978 291.688" stroke="#0C1523" stroke-width="2.09375" stroke-linecap="round" stroke-linejoin="round"/>
<path d="M192.537 291.728C181.521 286.85 156.463 257.642 150.242 250.675C147.366 247.461 143.462 245.345 139.198 244.69" stroke="#0C1523" stroke-width="2.09375" stroke-linecap="round" stroke-linejoin="round"/>
<path d="M120.807 267.235L94.357 279.41" stroke="#0C1523" stroke-width="2.09375" stroke-linecap="round" stroke-linejoin="round"/>
<path d="M119.817 263.467C123.837 277.837 125.264 292.656 121.659 307.133H76.2485C49.3882 307.133 58.3947 273.619 58.3947 273.619C62.9222 273.995 67.4762 273.898 71.984 273.333" stroke="#0C1523" stroke-width="2.09375" stroke-linecap="round" stroke-linejoin="round"/>
<path d="M192.537 291.696C199.92 293.86 208.168 299.684 213.828 304.426C214.071 304.627 214.245 304.898 214.329 305.203C214.411 305.508 214.397 305.831 214.289 306.128C214.181 306.424 213.984 306.679 213.724 306.86C213.466 307.039 213.156 307.134 212.841 307.133C196.929 307.116 185.79 306.965 172.965 306.94C172.494 306.942 172.027 306.845 171.595 306.655C171.162 306.468 170.774 306.191 170.454 305.845C170.134 305.498 169.889 305.089 169.735 304.644C169.581 304.198 169.521 303.726 169.559 303.255C169.909 299.315 170.744 295.434 172.042 291.697C178.738 293.624 185.84 293.622 192.537 291.696Z" stroke="#0C1523" stroke-width="2.09375" stroke-linecap="round" stroke-linejoin="round"/>
<path d="M236.843 291.696C239.007 284.312 244.831 270.973 249.573 265.313C249.742 265.06 249.986 264.867 250.271 264.76C250.556 264.651 250.867 264.635 251.16 264.712C251.455 264.789 251.718 264.956 251.914 265.189C252.11 265.422 252.227 265.71 252.253 266.013C254.624 279.155 253.425 307.26 252.125 307.133H236.883C238.811 300.513 238.685 298.761 236.843 291.696Z" stroke="#0C1523" stroke-width="2.09375" stroke-linecap="round" stroke-linejoin="round"/>
<path d="M236.842 291.696C217.907 292.81 199.512 290.2 186.782 288.011" stroke="#0C1523" stroke-width="2.09375" stroke-linecap="round" stroke-linejoin="round"/>
<path d="M131.242 241.73C135.793 240.586 139.562 242.556 139.294 244.308C139.237 244.663 139.102 245.001 138.899 245.298C138.697 245.596 138.431 245.844 138.121 246.026" stroke="#0C1523" stroke-width="2.09375" stroke-linecap="round" stroke-linejoin="round"/>
<path d="M130.765 238.962C135.539 237.752 140.376 240.076 138.339 242.622" stroke="#0C1523" stroke-width="2.09375" stroke-linecap="round" stroke-linejoin="round"/>
<path d="M123.031 257.58C126.025 253.526 130.123 250.422 134.835 248.637" stroke="#0C1523" stroke-width="2.09375" stroke-linecap="round" stroke-linejoin="round"/>
<path d="M131.115 245.009C135.539 244.054 138.498 245.709 138.339 247.459C138.148 249.56 133.984 252.839 130.383 250.865" stroke="#0C1523" stroke-width="2.09375" stroke-linecap="round" stroke-linejoin="round"/>
<path d="M114.47 244.691C116.507 242.59 127.559 233.195 128.314 233.934C129.152 234.753 127.264 237.404 127.264 237.404" stroke="#0C1523" stroke-width="2.09375" stroke-linecap="round" stroke-linejoin="round"/>
<path d="M114.47 244.691C117.992 241.805 121.943 239.486 126.182 237.823C131.412 235.78 136.532 233.465 141.522 230.887C143.029 229.999 140.949 234.674 133.056 238.619" stroke="#0C1523" stroke-width="2.09375" stroke-linecap="round" stroke-linejoin="round"/>
<path d="M208.577 93.4268H284.129" stroke="#0C1523" stroke-width="2.09375" stroke-linecap="round" stroke-linejoin="round"/>
<path d="M59.8905 93.4268H135.443" stroke="#0C1523" stroke-width="2.09375" stroke-linecap="round" stroke-linejoin="round"/>
<path d="M85.3505 78.0229C85.3505 78.8727 85.0985 79.7033 84.6264 80.4098C84.1543 81.1163 83.4833 81.6671 82.6983 81.9922C81.9132 82.3175 81.0494 82.4026 80.2159 82.2367C79.3824 82.0709 78.617 81.6617 78.0161 81.0609C77.4153 80.4601 77.0061 79.6946 76.8403 78.8611C76.6745 78.0276 76.7595 77.1638 77.0847 76.3788C77.4099 75.5937 77.9607 74.9227 78.6672 74.4507C79.3737 73.9785 80.2044 73.7266 81.0541 73.7266C82.1934 73.7271 83.286 74.1798 84.0915 74.9855C84.8972 75.791 85.35 76.8836 85.3505 78.0229Z" stroke="#0C1523" stroke-width="2.09375" stroke-linecap="round" stroke-linejoin="round"/>
<path d="M98.3669 78.0229C98.3669 78.8727 98.115 79.7033 97.6428 80.4098C97.1708 81.1163 96.4998 81.6671 95.7147 81.9922C94.9297 82.3175 94.0659 82.4026 93.2324 82.2367C92.3989 82.0709 91.6334 81.6617 91.0326 81.0609C90.4318 80.4601 90.0226 79.6946 89.8568 78.8611C89.6909 78.0276 89.776 77.1638 90.1011 76.3788C90.4264 75.5937 90.9772 74.9227 91.6837 74.4507C92.3902 73.9785 93.2208 73.7266 94.0706 73.7266C95.2099 73.7271 96.3025 74.1798 97.108 74.9855C97.9137 75.791 98.3664 76.8836 98.3669 78.0229Z" stroke="#0C1523" stroke-width="2.09375" stroke-linecap="round" stroke-linejoin="round"/>
<path d="M111.447 78.0229C111.447 78.8727 111.195 79.7033 110.723 80.4098C110.251 81.1163 109.58 81.6671 108.795 81.9922C108.01 82.3175 107.146 82.4026 106.312 82.2367C105.479 82.0709 104.713 81.6617 104.113 81.0609C103.512 80.4601 103.103 79.6946 102.937 78.8611C102.771 78.0276 102.856 77.1638 103.181 76.3788C103.506 75.5937 104.057 74.9227 104.764 74.4507C105.47 73.9785 106.301 73.7266 107.151 73.7266C108.29 73.7271 109.383 74.1798 110.188 74.9855C110.994 75.791 111.446 76.8836 111.447 78.0229Z" stroke="#0C1523" stroke-width="2.09375" stroke-linecap="round" stroke-linejoin="round"/>
<path d="M82.6453 247.397L98.4942 227.348C105.287 228.974 111.258 233.011 115.298 238.709L111.542 243.801" stroke="#0C1523" stroke-width="2.09375" stroke-linecap="round" stroke-linejoin="round"/>
<path d="M115.361 227.664C117.43 218.817 119.175 211.752 119.562 209.587C120.629 203.635 119.06 203.769 116.698 208.792C113.426 216.314 108.599 223.061 102.536 228.587" stroke="#0C1523" stroke-width="2.09375" stroke-linecap="round" stroke-linejoin="round"/>
<path d="M119.18 211.372C120.809 209.827 122.64 208.511 124.623 207.457C125.197 207.204 126.185 207.556 123.7 210.472C122.048 212.415 119.021 216.335 117.621 218.237" stroke="#0C1523" stroke-width="2.09375" stroke-linecap="round" stroke-linejoin="round"/>
<path d="M115.807 225.622C117.697 225.125 119.556 224.519 121.376 223.807C123.633 223.066 125.762 222.272 121.058 226.862C118.182 229.723 115.552 232.82 113.197 236.123" stroke="#0C1523" stroke-width="2.09375" stroke-linecap="round" stroke-linejoin="round"/>
<path d="M191.953 172.163C191.875 171.347 191.524 170.58 190.954 169.991C190.385 169.401 189.631 169.021 188.819 168.915L155.97 163.855C154.283 163.601 152.955 164.525 152.979 165.957L153.297 192.372L131.879 206.527C130.606 207.323 131.338 209.264 133.12 209.774L166.409 219.154C166.846 219.303 167.312 219.35 167.771 219.288C168.229 219.227 168.667 219.061 169.05 218.803L191.947 201.141L191.953 172.163Z" stroke="#0C1523" stroke-width="2.09375" stroke-linecap="round" stroke-linejoin="round"/>
<path d="M191.948 201.154L153.297 192.372" stroke="#0C1523" stroke-width="2.09375" stroke-linecap="round" stroke-linejoin="round"/>
<path d="M187.477 196.221C188.05 196.35 188.607 196.062 188.607 195.551V173.721C188.589 173.456 188.479 173.205 188.296 173.014C188.112 172.821 187.867 172.701 187.602 172.67L157.56 167.897C157.448 167.863 157.33 167.856 157.215 167.877C157.101 167.895 156.992 167.94 156.897 168.007C156.802 168.074 156.723 168.163 156.667 168.265C156.611 168.367 156.579 168.481 156.573 168.597L156.764 188.394C156.793 188.643 156.901 188.878 157.073 189.06C157.245 189.245 157.472 189.367 157.719 189.412L187.477 196.221Z" stroke="#0C1523" stroke-width="2.09375" stroke-linecap="round" stroke-linejoin="round"/>
<path d="M109.124 187.724H35.9581V134.258H109.124V187.724Z" stroke="#0C1523" stroke-width="2.09375" stroke-linecap="round" stroke-linejoin="round"/>
<path d="M153.233 187.724H135.443V134.258H208.577V187.724H191.996" stroke="#0C1523" stroke-width="2.09375" stroke-linecap="round" stroke-linejoin="round"/>
<path d="M308.03 187.724H234.896V134.258H308.03V187.724Z" stroke="#0C1523" stroke-width="2.09375" stroke-linecap="round" stroke-linejoin="round"/>
<path d="M208.577 109.308H135.443V70.8613H208.577V109.308Z" stroke="#0C1523" stroke-width="2.09375" stroke-linecap="round" stroke-linejoin="round"/>
<path d="M172.01 109.309V134.258" stroke="#0C1523" stroke-width="2.09375" stroke-linecap="round" stroke-linejoin="round"/>
<path d="M191.391 109.309V121.782H271.463V134.258" stroke="#0C1523" stroke-width="2.09375" stroke-linecap="round" stroke-linejoin="round"/>
<path d="M153.902 109.309V121.782H72.5568V134.258" stroke="#0C1523" stroke-width="2.09375" stroke-linecap="round" stroke-linejoin="round"/>
<path d="M165.39 97.2773L150.273 89.7364L165.199 82.606" stroke="#0C1523" stroke-width="2.09375" stroke-linecap="round" stroke-linejoin="round"/>
<path d="M178.82 97.3412L193.746 89.6714L178.63 82.6699" stroke="#0C1523" stroke-width="2.09375" stroke-linecap="round" stroke-linejoin="round"/>
<path d="M177.166 76.3701L166.663 103.802" stroke="#0C1523" stroke-width="2.09375" stroke-linecap="round" stroke-linejoin="round"/>
<path d="M93.9432 153.321C94.5313 153.333 95.1157 153.227 95.6622 153.01C96.209 152.792 96.7068 152.469 97.1267 152.057C97.5466 151.645 97.8803 151.153 98.1079 150.611C98.3357 150.069 98.453 149.487 98.453 148.898C98.453 148.31 98.3357 147.728 98.1079 147.186C97.8803 146.643 97.5466 146.152 97.1267 145.74C96.7068 145.328 96.209 145.004 95.6622 144.787C95.1157 144.57 94.5313 144.464 93.9432 144.475H50.6612C50.0731 144.464 49.4887 144.57 48.9421 144.787C48.3954 145.004 47.8976 145.328 47.4777 145.74C47.0578 146.152 46.7241 146.643 46.4965 147.186C46.2687 147.728 46.1514 148.31 46.1514 148.898C46.1514 149.487 46.2687 150.069 46.4965 150.611C46.7241 151.153 47.0578 151.645 47.4777 152.057C47.8976 152.469 48.3954 152.792 48.9421 153.01C49.4887 153.227 50.0731 153.333 50.6612 153.321H93.9432Z" stroke="#0C1523" stroke-width="2.09375" stroke-linecap="round" stroke-linejoin="round"/>
<path d="M193.555 144.474C194.728 144.474 195.854 144.94 196.683 145.769C197.514 146.599 197.979 147.724 197.979 148.897C197.979 150.07 197.514 151.196 196.683 152.025C195.854 152.855 194.728 153.321 193.555 153.321H150.245C149.072 153.321 147.947 152.855 147.117 152.025C146.287 151.196 145.821 150.07 145.821 148.897C145.821 147.724 146.287 146.599 147.117 145.769C147.947 144.94 149.072 144.474 150.245 144.474H193.555Z" stroke="#0C1523" stroke-width="2.09375" stroke-linecap="round" stroke-linejoin="round"/>
<path d="M76.7259 160.264C77.9029 160.268 79.03 160.739 79.8595 161.574C80.6891 162.409 81.1531 163.539 81.1496 164.716C81.1501 165.296 81.0357 165.87 80.8132 166.405C80.5908 166.941 80.2645 167.427 79.8531 167.835C79.4419 168.244 78.9538 168.567 78.4171 168.786C77.8805 169.006 77.3056 169.116 76.7259 169.111H50.6612C49.4881 169.111 48.3628 168.646 47.5332 167.817C46.7035 166.986 46.2375 165.861 46.2375 164.688C46.2375 163.515 46.7035 162.389 47.5332 161.56C48.3628 160.73 49.4881 160.264 50.6612 160.264H76.7259Z" stroke="#0C1523" stroke-width="2.09375" stroke-linecap="round" stroke-linejoin="round"/>
<path d="M276.491 141.483C277.079 141.471 277.664 141.577 278.21 141.794C278.758 142.012 279.255 142.336 279.676 142.747C280.094 143.159 280.428 143.651 280.656 144.193C280.883 144.735 281.001 145.318 281.001 145.906C281.001 146.494 280.883 147.076 280.656 147.618C280.428 148.161 280.094 148.652 279.676 149.064C279.255 149.476 278.758 149.8 278.21 150.017C277.664 150.234 277.079 150.34 276.491 150.328H251.127C250.539 150.34 249.954 150.234 249.408 150.017C248.861 149.8 248.363 149.476 247.943 149.064C247.524 148.652 247.191 148.161 246.963 147.618C246.735 147.076 246.618 146.494 246.618 145.906C246.618 145.318 246.735 144.735 246.963 144.193C247.191 143.651 247.524 143.159 247.943 142.747C248.363 142.336 248.861 142.012 249.408 141.794C249.954 141.577 250.539 141.471 251.127 141.483H276.491Z" stroke="#0C1523" stroke-width="2.09375" stroke-linecap="round" stroke-linejoin="round"/>
<path d="M288.458 157.267C289.617 157.29 290.719 157.766 291.531 158.593C292.342 159.42 292.798 160.533 292.798 161.692C292.798 162.85 292.342 163.963 291.531 164.79C290.719 165.617 289.617 166.094 288.458 166.116H251.127C249.968 166.094 248.866 165.617 248.053 164.79C247.243 163.963 246.787 162.85 246.787 161.692C246.787 160.533 247.243 159.42 248.053 158.593C248.866 157.766 249.968 157.29 251.127 157.267H288.458Z" stroke="#0C1523" stroke-width="2.09375" stroke-linecap="round" stroke-linejoin="round"/>
<path d="M150.592 114.844L153.965 109.309L157.116 115.004" stroke="#0C1523" stroke-width="2.09375" stroke-linecap="round" stroke-linejoin="round"/>
<path d="M168.668 114.844L172.042 109.309L175.161 115.004" stroke="#0C1523" stroke-width="2.09375" stroke-linecap="round" stroke-linejoin="round"/>
<path d="M188.145 114.844L191.519 109.309L194.638 115.004" stroke="#0C1523" stroke-width="2.09375" stroke-linecap="round" stroke-linejoin="round"/>
<path d="M302.874 109.657L291.449 120.987" stroke="#0C1523" stroke-width="2.09375" stroke-linecap="round" stroke-linejoin="round"/>
<path d="M302.843 121.019L291.481 109.627" stroke="#0C1523" stroke-width="2.09375" stroke-linecap="round" stroke-linejoin="round"/>
<path d="M42.0048 113.381L47.0332 120.478L52.9208 110.198" stroke="#0C1523" stroke-width="2.09375" stroke-linecap="round" stroke-linejoin="round"/>
<path d="M70.8065 229.608C66.9671 228.603 63.2522 227.172 59.7314 225.341" stroke="#0C1523" stroke-width="2.09375" stroke-linecap="round" stroke-linejoin="round"/>
<path d="M172.615 29.9991L166.027 32.1632L169.846 35.6003L164.818 41.2333L167.523 43.652L172.551 38.019L176.37 41.4242L179.202 27.835L172.615 29.9991Z" stroke="#0C1523" stroke-width="2.09375" stroke-linecap="round" stroke-linejoin="round"/>
<path d="M204.599 244.689C204.599 245.148 204.463 245.597 204.207 245.981C203.952 246.363 203.589 246.659 203.165 246.835C202.739 247.011 202.272 247.058 201.822 246.967C201.371 246.879 200.957 246.658 200.632 246.333C200.307 246.008 200.086 245.594 199.997 245.143C199.907 244.693 199.954 244.225 200.13 243.8C200.306 243.376 200.602 243.013 200.984 242.758C201.368 242.502 201.817 242.366 202.275 242.366C202.89 242.37 203.48 242.616 203.914 243.051C204.349 243.485 204.595 244.075 204.599 244.689Z" stroke="#0C1523" stroke-width="2.09375" stroke-linecap="round" stroke-linejoin="round"/>
<path d="M8.875 307.131H327.125" stroke="#0C1523" stroke-width="2.09375" stroke-linecap="round" stroke-linejoin="round"/>
<path d="M136.207 281.959L124.432 289.916" stroke="#0C1523" stroke-width="2.09375" stroke-linecap="round" stroke-linejoin="round"/>
<path d="M131.115 281.671C140.158 282.09 149.169 283.037 158.102 284.505" stroke="#0C1523" stroke-width="2.09375" stroke-linecap="round" stroke-linejoin="round"/>
<path d="M138.657 270.66L136.525 267.572" stroke="#0C1523" stroke-width="2.09375" stroke-linecap="round" stroke-linejoin="round"/>
<circle cx="137.641" cy="351.188" r="4.1875" fill="#F0F1F3"/>
<circle cx="152.297" cy="351.188" r="4.1875" fill="#F0F1F3"/>
<rect x="162.766" y="347" width="25.125" height="8.375" rx="4.1875" fill="#3787FF"/>
<circle cx="198.359" cy="351.188" r="4.1875" fill="#F0F1F3"/>
</svg>
