<svg width="336" height="356" viewBox="0 0 336 356" fill="none" xmlns="http://www.w3.org/2000/svg">
<path d="M245.312 182.576C234.515 171.246 206.158 156.148 192.496 148.644C187.853 156.503 170.76 157.541 161.276 154.658C156.249 158.538 152.474 163.811 150.422 169.821C152.805 173.273 150.422 184.996 149.521 193.564C150.774 200.518 152.674 207.341 155.197 213.942C150.005 208.15 144.568 202.453 140.176 198.125C121.416 186.968 125.667 189.415 118.885 185.458C117.993 185.911 117.132 186.421 116.307 186.986C112.197 189.765 108.845 193.525 106.556 197.927C104.266 202.327 103.111 207.23 103.195 212.191C105.843 214.369 141.616 240.331 156.598 250.031C174.324 261.456 186.736 255.251 188.55 239.052C189.466 230.633 192.52 191.189 192.687 188.927C197.354 193.872 211.975 205.567 218.911 207.259C218.455 212.042 213.812 252.271 213.501 254.869C222.043 262.036 237.916 263.93 245.071 260.629C246.827 250.244 250.982 212.935 251.563 200.384C251.85 194.133 251.702 189.276 245.312 182.576Z" fill="#3787FF"/>
<path d="M242.239 52.5356C239.224 53.1386 238.889 61.2456 238.865 64.3427C242.274 63.9402 245.731 64.4009 248.915 65.6827C247.235 57.7549 244.562 52.2492 242.239 52.5356Z" fill="#3787FF"/>
<path d="M250.609 79.3003C247.84 81.3079 244.617 82.5982 241.229 83.0556C241.981 85.9902 244.304 93.8728 247.307 93.6852C249.619 93.3988 250.863 87.4157 250.609 79.3003Z" fill="#3787FF"/>
<path d="M227.026 68.5435L209.427 70.7076C207.772 73.6355 208.255 79.6186 210.159 82.8011C211.499 81.8145 214.514 81.5281 216.97 81.2735C219.006 81.0825 219.42 81.719 219.738 82.8647C219.802 83.0875 219.834 83.3103 219.898 83.5649C221.392 82.6738 224.489 81.6269 225.626 82.1964L228.641 81.8145C226.001 79.2048 225.117 71.8851 227.026 68.5435Z" fill="#3787FF"/>
<path d="M130.724 279.894L121.208 273.211C120.14 272.464 119.412 271.323 119.185 270.04C118.957 268.755 119.249 267.434 119.996 266.365C120.743 265.298 121.884 264.569 123.168 264.341C124.452 264.115 125.773 264.407 126.841 265.154L128.305 266.172L129.324 264.708C130.071 263.641 131.211 262.913 132.494 262.687C133.778 262.46 135.098 262.752 136.166 263.499C137.234 264.246 137.961 265.387 138.188 266.67C138.415 267.953 138.122 269.274 137.375 270.341L130.724 279.894Z" fill="#3787FF"/>
<path d="M94.5071 93.8121C98.7255 93.8121 102.145 90.3925 102.145 86.1741C102.145 81.9558 98.7255 78.5361 94.5071 78.5361C90.2888 78.5361 86.8691 81.9558 86.8691 86.1741C86.8691 90.3925 90.2888 93.8121 94.5071 93.8121Z" fill="#0C1523"/>
<path d="M235.078 262.166C228.593 262.007 222.249 260.235 216.62 257.011C214.933 262.203 211.75 265.635 210.605 268.213C215.569 278.652 235.269 296.186 246.662 303.053C245.974 284.446 234.43 275.789 235.078 262.166Z" fill="#0C1523"/>
<path d="M110.229 181.713C111.852 182.795 113.698 184.928 116.276 186.996C112.98 189.258 110.164 192.147 107.99 195.5C105.816 198.855 104.327 202.606 103.609 206.537C94.2844 207.778 84.1959 213.347 69.7742 211.342C74.6484 202.527 99.1218 184.8 110.229 181.713Z" fill="#0C1523"/>
<path d="M152.238 205.104C153.065 207.905 154.052 210.864 155.197 213.951C150.005 208.191 144.568 202.463 140.176 198.071C145.236 201.062 149.692 203.68 152.238 205.104Z" fill="#0C1523"/>
<path d="M192.655 188.94C192.369 192.409 192.083 196.292 191.764 200.33C193.897 200.871 208.982 204.818 216.301 206.664C207.702 201.778 199.757 195.823 192.655 188.94Z" fill="#0C1523"/>
<path d="M192.051 137.795C193.547 142.378 195.301 146.872 197.302 151.257C195.743 150.398 194.151 149.538 192.497 148.647C192.433 144.574 192.274 140.977 192.051 137.795Z" fill="#0C1523"/>
<path d="M118.439 164.56C117.099 166.883 116.816 169.016 117.769 170.255C118.756 171.496 120.538 171.974 124.166 170.86C121.905 169.109 119.967 166.977 118.439 164.56Z" fill="#0C1523"/>
<path d="M141.163 155.807C141.521 156.42 141.645 157.142 141.51 157.838C141.375 158.535 140.991 159.16 140.431 159.594C138.362 157.557 136.452 155.648 134.829 153.899C138.493 153.418 140.052 154.464 141.163 155.807Z" fill="#0C1523"/>
<path d="M150.169 128.024C148.682 131.151 147.036 134.2 145.236 137.158C142.754 134.645 140.558 132.543 139.062 131.295C143.486 129.965 147.779 128.692 150.169 128.024Z" fill="#0C1523"/>
<path d="M202.235 109.725C199.148 110.361 196.888 111.666 196.984 112.875C196.984 114.652 202.491 115.175 202.712 115.199C202.617 114.053 202.426 112.016 202.235 109.725Z" fill="#0C1523"/>
<path d="M226.422 111.029C226.36 112.111 224.194 113.352 220.63 114.243C220.502 113.129 220.057 110.87 219.611 108.61C224.48 108.96 226.487 109.915 226.422 111.029Z" fill="#0C1523"/>
<path d="M226.103 97.663C224.866 98.4492 223.479 98.9693 222.03 99.1906C219.611 99.5725 217.956 97.5357 221.489 95.4671C218.911 95.9696 216.842 93.844 220.598 91.4571C220.295 91.4534 219.993 91.3997 219.707 91.298C218.943 92.0936 217.479 91.4889 216.079 86.0469C216.672 88.3188 216.693 90.7022 216.142 92.9847C216.273 96.394 217.211 99.7238 218.879 102.7C218.945 102.848 219.03 102.988 219.134 103.113C221.901 102.474 224.559 101.434 227.026 100.026C226.645 99.2697 226.335 98.4782 226.103 97.663Z" fill="#0C1523"/>
<path d="M196.856 66.2515C202.267 64.2784 199.88 57.7543 196.029 56.4176C199.912 54.4763 198.734 47.7612 193.865 48.0158C196.602 44.3559 194.406 39.2321 188.773 40.0277C189.505 35.3813 186.322 32.3227 181.294 34.4583C181.421 29.239 175.096 26.9795 172.287 30.4802C171.115 25.3246 165.381 23.4452 161.053 28.4702C159.881 23.2191 151.538 23.06 150.774 28.3429C147.241 23.8204 139.476 26.4016 140.017 31.5572C135.211 26.6244 128.687 32.0346 129.129 37.4198C124.133 34.6192 119.518 41.5252 121.592 46.0125C115.259 46.9354 113.887 53.0475 117.964 56.7325C112.013 58.833 112.872 64.6251 116.755 67.2984C112.204 70.4173 113.317 76.6231 118.728 77.4506C114.845 81.8056 118.982 88.9076 124.297 87.8892C121.337 92.8221 125.379 98.2641 130.662 96.0967C130.21 97.3576 130.235 98.7405 130.733 99.984C131.231 101.227 132.168 102.245 133.365 102.845C137.153 101.477 146.159 98.0715 146.159 98.0715C156.534 94.0297 159.016 86.169 161.021 77.9899C155.261 76.1474 157.775 70.3838 160.671 72.6115C163.44 74.7438 162.549 71.8795 162.263 68.8243C165.962 67.7411 169.775 67.0897 173.624 66.883C178.338 81.0753 177.535 88.0081 171.8 87.7485C169.043 87.355 166.401 86.3847 164.045 84.901C164.836 86.887 166.003 88.7017 167.482 90.2459C167.482 93.5507 169.817 97.7382 174.77 100.495L176.552 101.482C177.411 101.959 178.366 102.5 179.353 103.105C180.503 102.809 181.498 102.083 182.131 101.077C182.765 100.071 182.989 98.8608 182.758 97.6946C183.755 98.3484 184.93 98.6733 186.12 98.6237C187.311 98.5742 188.455 98.1526 189.394 97.4183C190.332 96.6839 191.016 95.6737 191.349 94.5302C191.684 93.3865 191.65 92.167 191.255 91.0432C196.793 90.9796 197.525 84.8692 194.565 81.9412C199.243 80.8274 199.052 76.1809 195.615 74.3032C199.943 72.9348 200.166 68.1292 196.856 66.2515Z" fill="#0C1523"/>
<path d="M215.219 239.984L187.245 244.917" stroke="#0C1523" stroke-width="2.09375" stroke-linecap="round" stroke-linejoin="round"/>
<path d="M245.644 93.0479L269.863 230.341L248.445 234.128" stroke="#0C1523" stroke-width="2.09375" stroke-linecap="round" stroke-linejoin="round"/>
<path d="M193.546 83.9141L203.73 82.1001" stroke="#0C1523" stroke-width="2.09375" stroke-linecap="round" stroke-linejoin="round"/>
<path d="M93.6159 124.968L89.606 102.245L125.457 95.9141" stroke="#0C1523" stroke-width="2.09375" stroke-linecap="round" stroke-linejoin="round"/>
<path d="M104.054 184.196L97.4985 146.96" stroke="#0C1523" stroke-width="2.09375" stroke-linecap="round" stroke-linejoin="round"/>
<path d="M156.98 250.264L116.944 257.33L109.847 217.167" stroke="#0C1523" stroke-width="2.09375" stroke-linecap="round" stroke-linejoin="round"/>
<path d="M300.192 310.544L254.205 49.7469C253.706 46.9036 252.652 44.1866 251.101 41.7515C249.552 39.3162 247.537 37.2106 245.172 35.5552C242.807 33.8998 240.138 32.7271 237.319 32.1042C234.502 31.4812 231.587 31.4203 228.745 31.925L188.98 38.93M110.292 310.544L92.3672 209.301M115.711 51.8374L87.7284 56.7669C84.8839 57.2654 82.1656 58.3196 79.7288 59.869C77.2918 61.4185 75.1842 63.433 73.5261 65.7975C71.8682 68.1619 70.6922 70.8298 70.0657 73.6489C69.4391 76.4679 69.3743 79.3827 69.8746 82.2269V82.2587L89.5141 193.186" stroke="#0C1523" stroke-width="2.09375" stroke-linecap="round" stroke-linejoin="round"/>
<path d="M295.1 114.372C299.564 114.372 303.183 110.753 303.183 106.288C303.183 101.824 299.564 98.2046 295.1 98.2046C290.636 98.2046 287.016 101.824 287.016 106.288C287.016 110.753 290.636 114.372 295.1 114.372Z" stroke="#0C1523" stroke-width="2.09375" stroke-linecap="round" stroke-linejoin="round"/>
<path d="M319.255 130.983C323.719 130.983 327.339 127.364 327.339 122.899C327.339 118.435 323.719 114.816 319.255 114.816C314.791 114.816 311.172 118.435 311.172 122.899C311.172 127.364 314.791 130.983 319.255 130.983Z" stroke="#0C1523" stroke-width="2.09375" stroke-linecap="round" stroke-linejoin="round"/>
<path d="M292.108 135.916L322.183 92.9521" stroke="#0C1523" stroke-width="2.09375" stroke-linecap="round" stroke-linejoin="round"/>
<path d="M322.816 47.6654C322.012 47.0879 321.014 46.8509 320.036 47.0058C319.059 47.1608 318.183 47.6951 317.597 48.4929L316.801 49.5749C316.801 49.5749 315.629 48.7475 315.592 48.7157C314.77 48.1817 313.77 47.9927 312.808 48.1895C311.847 48.3862 311.001 48.9528 310.455 49.7674C309.907 50.5818 309.701 51.5786 309.884 52.5429C310.064 53.507 310.617 54.3614 311.423 54.9215L318.647 59.9817L323.707 52.7574C324.247 51.9581 324.454 50.9813 324.289 50.0319C324.123 49.0823 323.595 48.2343 322.816 47.6654Z" stroke="#0C1523" stroke-width="2.09375" stroke-linecap="round" stroke-linejoin="round"/>
<path d="M163.726 270.218C164.425 268.764 164.647 267.127 164.363 265.539C164.213 263.702 163.511 261.953 162.348 260.523C161.186 259.092 159.618 258.045 157.851 257.523C156.083 257 154.198 257.024 152.444 257.591C150.691 258.159 149.15 259.243 148.024 260.704C146.898 262.163 146.24 263.93 146.137 265.77C146.033 267.61 146.489 269.439 147.444 271.015C148.399 272.593 149.809 273.844 151.488 274.604C153.167 275.365 155.037 275.599 156.852 275.278C158.698 274.953 160.411 274.102 161.785 272.827L165.795 273.687L163.726 270.218Z" stroke="#0C1523" stroke-width="2.09375" stroke-linecap="round" stroke-linejoin="round"/>
<path d="M258.215 258.984L265.153 250.9L274.414 256.119L271.518 239.761L255.319 242.625L258.215 258.984Z" stroke="#0C1523" stroke-width="2.09375" stroke-linecap="round" stroke-linejoin="round"/>
<path d="M106.473 84.0733L117.178 82.186" stroke="#0C1523" stroke-width="2.09375" stroke-linecap="round" stroke-linejoin="round"/>
<path d="M36.2673 201.444C38.4644 201.444 40.2454 199.663 40.2454 197.465C40.2454 195.268 38.4644 193.487 36.2673 193.487C34.0702 193.487 32.2892 195.268 32.2892 197.465C32.2892 199.663 34.0702 201.444 36.2673 201.444Z" stroke="#0C1523" stroke-width="2.09375" stroke-linecap="round" stroke-linejoin="round"/>
<path d="M60.0088 197.243C62.2059 197.243 63.9869 195.462 63.9869 193.265C63.9869 191.067 62.2059 189.287 60.0088 189.287C57.8117 189.287 56.0306 191.067 56.0306 193.265C56.0306 195.462 57.8117 197.243 60.0088 197.243Z" stroke="#0C1523" stroke-width="2.09375" stroke-linecap="round" stroke-linejoin="round"/>
<path d="M40.1499 196.765L56.0942 193.965" stroke="#0C1523" stroke-width="2.09375" stroke-linecap="round" stroke-linejoin="round"/>
<path d="M9.08875 161.185L17.7451 159.658L34.5169 193.901" stroke="#0C1523" stroke-width="2.09375" stroke-linecap="round" stroke-linejoin="round"/>
<path d="M31.6844 188.141L61.4726 179.644L64.8143 163.508L23.219 170.86" stroke="#0C1523" stroke-width="2.09375" stroke-linecap="round" stroke-linejoin="round"/>
<path d="M37.7949 93.4932L41.232 113.002" stroke="#0C1523" stroke-width="2.09375" stroke-linecap="round" stroke-linejoin="round"/>
<path d="M49.2837 101.545L29.775 104.982" stroke="#0C1523" stroke-width="2.09375" stroke-linecap="round" stroke-linejoin="round"/>
<path d="M306.78 168.091L312.795 202.335" stroke="#0C1523" stroke-width="2.09375" stroke-linecap="round" stroke-linejoin="round"/>
<path d="M326.925 182.222L292.649 188.237" stroke="#0C1523" stroke-width="2.09375" stroke-linecap="round" stroke-linejoin="round"/>
<path d="M220.63 114.212C220.375 111.857 218.593 104.378 218.879 102.655" stroke="#0C1523" stroke-width="2.09375" stroke-linecap="round" stroke-linejoin="round"/>
<path d="M216.174 93.2715C216.45 96.7227 217.459 100.075 219.134 103.105C221.906 102.481 224.566 101.44 227.026 100.018C226.639 99.2777 226.331 98.4992 226.103 97.6952" stroke="#0C1523" stroke-width="2.09375" stroke-linecap="round" stroke-linejoin="round"/>
<path d="M250.641 79.3002C250.895 87.4155 249.622 93.4053 247.331 93.6851C244.405 94.0435 240.902 85.1241 239.502 73.7626C238.101 62.4011 239.343 52.8904 242.271 52.5353C244.594 52.2523 247.267 57.7546 248.954 65.6791" stroke="#0C1523" stroke-width="2.09375" stroke-linecap="round" stroke-linejoin="round"/>
<path d="M228.649 81.8135C226.008 79.2039 225.117 71.8841 227.026 68.5425" stroke="#0C1523" stroke-width="2.09375" stroke-linecap="round" stroke-linejoin="round"/>
<path d="M210.159 82.801C208.25 79.6185 207.772 73.6354 209.427 70.7075" stroke="#0C1523" stroke-width="2.09375" stroke-linecap="round" stroke-linejoin="round"/>
<path d="M238.899 64.3425C246.95 63.5469 253.888 66.855 254.493 71.9487C255.097 77.0424 249.21 81.9099 241.19 83.0556" stroke="#0C1523" stroke-width="2.09375" stroke-linecap="round" stroke-linejoin="round"/>
<path d="M225.626 82.1954L228.649 81.8135L245.93 93.2386" stroke="#0C1523" stroke-width="2.09375" stroke-linecap="round" stroke-linejoin="round"/>
<path d="M241.029 53.2993L227.026 68.5418L208.027 70.865C199.689 71.8834 200.389 84.4225 208.822 84.1997" stroke="#0C1523" stroke-width="2.09375" stroke-linecap="round" stroke-linejoin="round"/>
<path d="M202.235 109.725C199.116 110.361 196.888 111.666 196.984 112.844C197.111 114.403 201.121 115.793 212.132 115.326C220.534 114.969 226.336 112.814 226.422 110.998C226.472 109.914 224.449 108.929 219.611 108.579" stroke="#0C1523" stroke-width="2.09375" stroke-linecap="round" stroke-linejoin="round"/>
<path d="M140.431 159.628C140.993 159.194 141.378 158.57 141.513 157.872C141.647 157.175 141.523 156.452 141.163 155.84C139.697 153.537 134.538 152.457 126.618 156.954C119.294 161.113 115.721 167.664 117.771 170.289C118.734 171.523 120.54 172.008 124.168 170.894" stroke="#0C1523" stroke-width="2.09375" stroke-linecap="round" stroke-linejoin="round"/>
<path d="M134.797 153.897C138.521 157.907 143.653 162.705 149.151 167.996C150.033 168.916 150.695 170.024 151.086 171.237C151.478 172.45 151.588 173.736 151.41 174.997C151.219 177.798 149.437 193.965 149.151 196.257C148.769 199.119 145.466 200.647 145.682 179.771" stroke="#0C1523" stroke-width="2.09375" stroke-linecap="round" stroke-linejoin="round"/>
<path d="M118.439 164.527C120.05 167.192 122.205 169.485 124.765 171.259C127.324 173.031 130.229 174.244 133.29 174.815" stroke="#0C1523" stroke-width="2.09375" stroke-linecap="round" stroke-linejoin="round"/>
<path d="M133.876 173.311C133.685 173.915 132.667 176.302 132.536 176.661" stroke="#0C1523" stroke-width="2.09375" stroke-linecap="round" stroke-linejoin="round"/>
<path d="M128.464 173.375C128.241 175.953 128.782 179.165 131.233 180.79C134.256 182.8 135.561 181.84 138.68 175.157" stroke="#0C1523" stroke-width="2.09375" stroke-linecap="round" stroke-linejoin="round"/>
<path d="M134.957 181.203C138.521 183.303 140.112 182.603 143.136 175.538" stroke="#0C1523" stroke-width="2.09375" stroke-linecap="round" stroke-linejoin="round"/>
<path d="M139.412 181.713C142.658 183.555 144.568 183.177 147.591 175.762" stroke="#0C1523" stroke-width="2.09375" stroke-linecap="round" stroke-linejoin="round"/>
<path d="M137.729 170.701C141.152 170.66 144.574 170.828 147.976 171.203" stroke="#0C1523" stroke-width="2.09375" stroke-linecap="round" stroke-linejoin="round"/>
<path d="M119.267 130.602C124.422 136.01 138.266 152.37 141.162 155.775" stroke="#0C1523" stroke-width="2.09375" stroke-linecap="round" stroke-linejoin="round"/>
<path d="M124.136 136.011C127.542 134.801 144.345 129.646 150.169 128.022C148.673 131.141 147.018 134.197 145.236 137.156" stroke="#0C1523" stroke-width="2.09375" stroke-linecap="round" stroke-linejoin="round"/>
<path d="M149.5 193.425C150.976 201.442 153.258 209.289 156.311 216.848" stroke="#0C1523" stroke-width="2.09375" stroke-linecap="round" stroke-linejoin="round"/>
<path d="M139.069 131.333C143.652 135.121 154.599 146.864 161.283 154.661C156.257 158.503 152.489 163.754 150.462 169.746" stroke="#0C1523" stroke-width="2.09375" stroke-linecap="round" stroke-linejoin="round"/>
<path d="M110.292 162.172C109.656 155.489 122.545 143.713 133.015 146.259" stroke="#0C1523" stroke-width="2.09375" stroke-linecap="round" stroke-linejoin="round"/>
<path d="M202.744 115.198C202.617 113.097 202.012 108.069 201.916 103.836C201.757 96.7712 202.263 95.0191 204.081 91.6088C205.729 88.4886 207.737 85.5726 210.064 82.9206C211.32 81.8235 214.487 81.5287 217.033 81.2975C219.07 81.1133 219.465 81.7381 219.802 82.8888C220.303 85.1331 220.507 87.4337 220.407 89.7312C220.34 91.6725 218.179 93.9639 216.174 86.0462C217.192 90.7881 216.715 94.9237 212.96 97.4362" stroke="#0C1523" stroke-width="2.09375" stroke-linecap="round" stroke-linejoin="round"/>
<path d="M226.072 89.5469C227.758 90.1515 227.775 92.4664 226.008 93.6523C224.639 94.5576 223.1 95.1749 221.485 95.4663C218.903 95.9487 216.839 93.8433 220.594 91.4564" stroke="#0C1523" stroke-width="2.09375" stroke-linecap="round" stroke-linejoin="round"/>
<path d="M226.001 93.6523C226.375 93.8332 226.69 94.1135 226.914 94.462C227.137 94.8104 227.261 95.2139 227.271 95.6282C227.281 96.0424 227.177 96.4513 226.969 96.8101C226.762 97.169 226.46 97.4638 226.097 97.6623C224.861 98.4504 223.474 98.9708 222.023 99.1899C219.603 99.5651 217.95 97.535 221.482 95.4664" stroke="#0C1523" stroke-width="2.09375" stroke-linecap="round" stroke-linejoin="round"/>
<path d="M220.025 83.532C221.465 82.6739 223.092 82.1741 224.767 82.0748C227.12 81.9357 227.313 85.0898 225.053 85.9892C223.583 86.6537 222.013 87.073 220.407 87.2304" stroke="#0C1523" stroke-width="2.09375" stroke-linecap="round" stroke-linejoin="round"/>
<path d="M225.785 85.5371C227.472 86.2373 227.472 88.656 225.626 89.8653C224.703 90.47 221.807 91.8753 219.834 91.2974" stroke="#0C1523" stroke-width="2.09375" stroke-linecap="round" stroke-linejoin="round"/>
<path d="M181.071 109.247C186.354 114.179 192.051 118.508 192.528 148.646C250.895 180.184 252.2 187.091 251.595 200.393C251.022 212.996 246.758 251.122 245.063 260.606C237.934 263.916 222.085 262.007 213.492 254.846C214.574 245.298 218.584 210.832 218.903 207.276C213.524 205.971 194.206 200.911 191.788 200.306" stroke="#0C1523" stroke-width="2.09375" stroke-linecap="round" stroke-linejoin="round"/>
<path d="M214.806 243.834C220.534 250.168 237.274 253.477 246.631 249.754" stroke="#0C1523" stroke-width="2.09375" stroke-linecap="round" stroke-linejoin="round"/>
<path d="M193.642 176.906C192.878 185.784 189.749 228.143 188.518 239.06C186.691 255.258 174.281 261.489 156.566 250.04C141.628 240.384 106.792 215.033 103.195 212.2C103.111 206.735 104.53 201.351 107.297 196.636C110.063 191.923 114.072 188.058 118.885 185.467C128.655 191.132 146.064 201.666 152.238 205.065" stroke="#0C1523" stroke-width="2.09375" stroke-linecap="round" stroke-linejoin="round"/>
<path d="M111.183 218.12C111.088 208.509 118.089 194.538 128.21 191.005" stroke="#0C1523" stroke-width="2.09375" stroke-linecap="round" stroke-linejoin="round"/>
<path d="M161.276 154.661C171.524 157.907 188.2 155.902 192.528 148.678" stroke="#0C1523" stroke-width="2.09375" stroke-linecap="round" stroke-linejoin="round"/>
<path d="M165.763 155.68C153.924 173.407 157.68 201.126 163.631 230.564C145.109 218.756 121.495 204.532 116.624 201.094" stroke="#0C1523" stroke-width="2.09375" stroke-linecap="round" stroke-linejoin="round"/>
<path d="M216.621 257.043C214.966 262.235 211.752 265.668 210.606 268.245C215.571 278.652 235.303 296.188 246.664 303.062C245.932 284.134 233.998 274.61 235.08 262.23" stroke="#0C1523" stroke-width="2.09375" stroke-linecap="round" stroke-linejoin="round"/>
<path d="M116.275 186.996C113.697 184.96 111.852 182.827 110.229 181.713C99.1216 184.8 74.6482 202.527 69.7789 211.311C84.1957 213.321 94.316 207.778 103.614 206.505" stroke="#0C1523" stroke-width="2.09375" stroke-linecap="round" stroke-linejoin="round"/>
<path d="M226.422 111.03C226.835 158.417 225.976 163.29 222.316 165.61" stroke="#0C1523" stroke-width="2.09375" stroke-linecap="round" stroke-linejoin="round"/>
<path d="M196.983 112.875C198.288 120.259 201.375 140.436 202.457 145.464" stroke="#0C1523" stroke-width="2.09375" stroke-linecap="round" stroke-linejoin="round"/>
<path d="M198.957 124.745C206.494 127.864 222.444 127.291 226.517 122.065" stroke="#0C1523" stroke-width="2.09375" stroke-linecap="round" stroke-linejoin="round"/>
<path d="M192.687 188.94C199.782 195.831 207.729 201.787 216.333 206.666" stroke="#0C1523" stroke-width="2.09375" stroke-linecap="round" stroke-linejoin="round"/>
<path d="M140.176 198.07C144.531 202.462 150.01 208.159 155.197 213.951" stroke="#0C1523" stroke-width="2.09375" stroke-linecap="round" stroke-linejoin="round"/>
<path d="M192.051 137.762C193.541 142.346 195.293 146.841 197.302 151.224" stroke="#0C1523" stroke-width="2.09375" stroke-linecap="round" stroke-linejoin="round"/>
<path d="M167.452 86.5974C166.293 86.0912 165.166 85.5162 164.077 84.8755C164.879 86.8501 166.039 88.6595 167.499 90.212" stroke="#0C1523" stroke-width="2.09375" stroke-linecap="round" stroke-linejoin="round"/>
<path d="M117.6 170.043C106.311 158.172 100.743 150.959 95.1754 144.063C86.2644 133.02 91.5775 123.947 103.132 116.471C115.192 108.671 132.277 103.508 146.191 98.0762C156.562 94.026 159.016 86.1736 161.085 77.9946C155.325 76.1521 157.832 70.3985 160.735 72.6162C163.497 74.725 162.577 71.8524 162.326 68.829C166.03 67.7639 169.84 67.1128 173.688 66.8877C179.398 84.1603 176.984 90.6961 167.452 86.5907C166.837 94.6307 170.787 98.2638 174.802 100.493C180.626 103.739 190.396 109.022 198.32 120.861" stroke="#0C1523" stroke-width="2.09375" stroke-linecap="round" stroke-linejoin="round"/>
<path d="M144.409 98.7764C154.052 101.959 167.189 110.265 174.07 115.739C175.596 111.134 176.441 106.331 176.582 101.481" stroke="#0C1523" stroke-width="2.09375" stroke-linecap="round" stroke-linejoin="round"/>
<path d="M133.397 102.845C132.203 102.243 131.27 101.226 130.772 99.9845C130.275 98.7433 130.247 97.3633 130.694 96.103C125.411 98.2671 121.369 92.8569 124.329 87.8955C119.014 88.9139 114.877 81.817 118.759 77.4888C113.349 76.6295 112.227 70.4236 116.786 67.3048C112.904 64.6248 112.044 58.8393 117.996 56.7389C113.922 53.0539 115.29 46.9368 121.624 46.0189C119.555 41.5315 124.17 34.6288 129.161 37.4261C128.716 32.0795 135.24 26.6374 140.049 31.5636C139.508 26.4079 147.273 23.8301 150.805 28.3493C151.569 23.0663 159.907 23.2254 161.085 28.4766C165.413 23.4516 171.135 25.3259 172.319 30.4866C175.12 26.9858 181.453 29.2454 181.326 34.4647C186.351 32.3324 189.533 35.3876 188.805 40.0341C194.438 39.2384 196.633 44.3623 193.897 48.0221C198.798 47.7675 199.943 54.4826 196.061 56.4239C199.913 57.764 202.298 64.2847 196.888 66.2579C197.672 66.6828 198.305 67.3398 198.702 68.1386C199.099 68.9375 199.238 69.8394 199.102 70.7207C198.967 71.6021 198.561 72.42 197.943 73.0624C197.325 73.7049 196.523 74.1404 195.647 74.3096C199.084 76.1873 199.275 80.8421 194.565 81.9476C197.525 84.8755 196.793 90.9926 191.255 91.0496C191.65 92.1733 191.684 93.3929 191.351 94.5366C191.016 95.6801 190.332 96.6903 189.394 97.4246C188.454 98.1589 187.31 98.5805 186.12 98.6301C184.93 98.6797 183.754 98.3547 182.758 97.701C182.989 98.8671 182.764 100.077 182.131 101.083C181.498 102.089 180.503 102.815 179.353 103.111" stroke="#0C1523" stroke-width="2.09375" stroke-linecap="round" stroke-linejoin="round"/>
<path d="M130.724 279.893L121.208 273.21C120.14 272.463 119.412 271.322 119.185 270.039C118.958 268.755 119.249 267.433 119.997 266.364C120.744 265.297 121.884 264.569 123.168 264.341C124.452 264.115 125.773 264.406 126.841 265.153L128.305 266.172L129.324 264.708C130.071 263.641 131.211 262.912 132.495 262.686C133.778 262.46 135.098 262.751 136.166 263.498C137.234 264.246 137.961 265.386 138.188 266.669C138.415 267.952 138.123 269.274 137.375 270.341L130.724 279.893Z" stroke="#0C1523" stroke-width="2.09375" stroke-linejoin="round"/>
<circle cx="137.641" cy="351.188" r="4.1875" fill="#F0F1F3"/>
<rect x="148.109" y="347" width="25.125" height="8.375" rx="4.1875" fill="#3787FF"/>
<circle cx="183.703" cy="351.188" r="4.1875" fill="#F0F1F3"/>
<circle cx="198.359" cy="351.188" r="4.1875" fill="#F0F1F3"/>
</svg>
