<svg width="335" height="356" viewBox="0 0 335 356" fill="none" xmlns="http://www.w3.org/2000/svg">
<path d="M296.167 148.861C292.358 148.861 290.924 130.317 294.735 130.021C274.132 132.214 252.979 135.584 238.599 133.299C233.55 139.524 229.431 146.45 226.371 153.858C224.428 146.885 223.721 139.625 224.283 132.408C221.547 132.185 191.695 112.392 179.126 105.04C176.401 106.884 174.079 109.261 172.302 112.029C170.523 114.797 169.327 117.897 168.783 121.142L212.836 147.942L216.305 142.945C215.494 144.94 215.04 147.063 214.965 149.215C214.837 153.543 216.238 159.875 221.455 170.99C226.547 172.517 234.855 170.162 241.187 166.502C240.9 162.524 242.842 157.655 244.305 153.583C243.182 152.76 242.001 152.016 240.773 151.355C259.442 152.585 277.01 151.193 296.167 148.861Z" fill="#3787FF"/>
<path d="M140.965 178.107C131.289 177.35 121.581 177.083 111.878 177.311C112.484 175.249 112.847 173.124 112.96 170.978C105.004 173.047 97.3024 173.11 87.0564 171.648V171.521C82.2961 174.67 78.1404 185.835 81.1252 194.043L72.8625 211.493L49.3136 196.468C42.2167 200.892 38.6523 206.557 36.0426 215.245L65.7337 235.579C67.7254 236.946 69.984 237.876 72.3606 238.306C74.7374 238.738 77.1786 238.661 79.5234 238.08C81.8683 237.501 84.0637 236.43 85.9651 234.94C87.8666 233.451 89.4311 231.574 90.5555 229.437L100.039 211.394L88.0698 202.252C89.8253 203.277 91.7102 204.061 93.6743 204.584C103.445 207.289 117.732 206.207 127.342 205.029C124.516 216.272 122.306 227.66 120.724 239.144C126.783 243.221 134.172 244.825 141.377 243.631C146.759 228.546 151.307 213.176 154.999 197.59C155.551 195.373 155.613 193.061 155.18 190.817C154.748 188.574 153.833 186.45 152.497 184.596C151.161 182.742 149.438 181.201 147.446 180.08C145.455 178.959 143.243 178.286 140.965 178.107Z" fill="#3787FF"/>
<path d="M280.32 79.3891C280.08 79.1475 279.795 78.9559 279.48 78.8251C279.167 78.6943 278.83 78.627 278.489 78.627C278.149 78.627 277.812 78.6943 277.499 78.8251C277.184 78.9559 276.899 79.1475 276.66 79.3891L275.99 80.0591L275.32 79.3891C274.834 78.9038 274.176 78.6311 273.489 78.6313C272.802 78.6315 272.144 78.9043 271.658 79.3899C271.174 79.8755 270.901 80.5339 270.901 81.2205C270.901 81.9069 271.174 82.5654 271.66 83.0506L276.015 87.3788L280.311 83.0506C280.554 82.8116 280.747 82.527 280.879 82.213C281.01 81.8991 281.078 81.5621 281.078 81.2215C281.08 80.8812 281.013 80.5438 280.882 80.2293C280.752 79.9147 280.561 79.6293 280.32 79.3891Z" fill="#3787FF"/>
<path d="M98.098 265.557L93.6743 264.888L91.7012 260.91L89.728 264.888L85.306 265.557L88.5204 268.644L87.7566 273.035L91.7012 270.967L95.6475 273.035L94.8837 268.644L98.098 265.557Z" fill="#3787FF"/>
<path d="M231.024 126.069L227.674 129.251C227.984 128.368 228.177 127.448 228.247 126.514C229.187 126.469 230.118 126.32 231.024 126.069Z" fill="#0C1523"/>
<path d="M244.964 151.567C244.741 152.203 244.518 152.872 244.264 153.577C243.14 152.753 241.959 152.009 240.731 151.349C242.163 151.408 243.564 151.503 244.964 151.567Z" fill="#0C1523"/>
<path d="M270.868 98.7388C265.655 94.4106 251.52 106.568 251.52 106.568C254.128 93.7104 235.035 104.725 228.606 110.991C231.916 108.35 234.557 114.077 234.271 117.323C234.271 118.088 234.685 118.248 235.862 117.42C238.313 115.638 240.063 119.871 235.448 121.842C235.138 122.177 234.911 122.578 234.778 123.015C233.932 125.416 233.877 128.026 234.619 130.462C256.037 126.076 276.055 103.035 270.868 98.7388Z" fill="#0C1523"/>
<path d="M234.08 196.373L231.534 198.569L229.306 189.117L234.08 196.373Z" fill="#0C1523"/>
<path d="M164.163 48.2661C161.613 48.2661 159.119 49.0226 156.998 50.4398C154.877 51.857 153.224 53.8712 152.248 56.2279C151.271 58.5846 151.016 61.1779 151.514 63.6798C152.011 66.1816 153.24 68.4799 155.044 70.2835C156.847 72.0873 159.145 73.3156 161.647 73.8132C164.149 74.311 166.742 74.0556 169.1 73.0794C171.456 72.1032 173.47 70.45 174.887 68.3291C176.304 66.2081 177.061 63.7145 177.061 61.1636C177.064 59.469 176.733 57.7905 176.086 56.2244C175.438 54.6581 174.488 53.235 173.291 52.0369C172.091 50.8386 170.669 49.8887 169.103 49.2417C167.537 48.5946 165.858 48.2631 164.163 48.2661ZM164.482 69.016C164.482 69.1005 164.448 69.1814 164.389 69.2412C164.329 69.3008 164.248 69.3343 164.163 69.3343C164.121 69.3368 164.079 69.3301 164.039 69.315C163.999 69.2999 163.963 69.2765 163.933 69.2465C163.903 69.2164 163.88 69.1804 163.864 69.1407C163.849 69.101 163.843 69.0584 163.845 69.016V59.023C163.846 58.9387 163.879 58.858 163.939 58.7984C163.998 58.7389 164.079 58.7052 164.163 58.7047C164.206 58.7022 164.248 58.7089 164.288 58.724C164.328 58.7391 164.364 58.7625 164.394 58.7925C164.424 58.8227 164.447 58.8587 164.462 58.8984C164.478 58.9381 164.484 58.9806 164.482 59.023V69.016ZM163.272 54.1873C163.282 53.9534 163.382 53.7325 163.551 53.5707C163.72 53.4087 163.945 53.3184 164.179 53.3184C164.413 53.3184 164.638 53.4087 164.807 53.5707C164.976 53.7325 165.076 53.9534 165.086 54.1873C165.076 54.4211 164.976 54.642 164.807 54.8038C164.638 54.9658 164.413 55.0561 164.179 55.0561C163.945 55.0561 163.72 54.9658 163.551 54.8038C163.382 54.642 163.282 54.4211 163.272 54.1873Z" fill="#0C1523"/>
<path d="M87.8823 202.134L100.039 211.395L102.872 206.048C97.6409 205.914 92.5114 204.574 87.8823 202.134Z" fill="#0C1523"/>
<path d="M98.3847 131.994L94.5657 129.418C95.6636 129.55 96.7706 129.593 97.8755 129.545C97.9627 130.377 98.1333 131.197 98.3847 131.994Z" fill="#0C1523"/>
<path d="M216.259 142.941C215.448 144.936 214.995 147.059 214.919 149.211L212.787 147.906L216.259 142.941Z" fill="#0C1523"/>
<path d="M114.679 143.165C114.963 144.552 115.165 145.955 115.284 147.366C115.888 147.08 116.557 146.729 117.225 146.379L114.679 143.165Z" fill="#0C1523"/>
<path d="M123.365 241.754C122.635 243.854 121.711 245.955 121.076 247.799C121.57 249.916 122.339 251.96 123.365 253.878C126.58 259.829 129.794 271.509 132.34 274.437C133.74 270.267 135.236 259.799 136.223 253.909C131.255 250.645 126.903 246.531 123.365 241.754Z" fill="#0C1523"/>
<path d="M38.6525 193.954C36.4815 193.859 34.3077 194.063 32.192 194.559C25.5724 196.087 13.4488 196.087 9.97986 197.773C13.6079 200.256 23.3128 204.489 28.7231 206.971C33.1957 203.026 38.3364 199.911 43.9036 197.773C42.0259 196.5 40.2437 195.068 38.6525 193.954Z" fill="#0C1523"/>
<path d="M95.2021 111.663C94.1519 109.944 91.8521 110.04 92.0833 111.344C90.6528 110.071 88.1705 110.674 88.4552 112.14C86.7384 110.74 84.7334 111.854 85.1454 113.19C83.6513 112.045 82.0283 113.19 82.5375 114.559C80.4052 113.636 78.623 115.229 81.1372 117.741C82.2192 118.823 86.9276 122.322 89.5691 126.746C89.7316 126.11 89.7165 125.441 89.5259 124.813C89.3351 124.184 88.9758 123.62 88.4871 123.182C85.8774 121.208 87.6596 118.855 89.3145 120.476C90.7785 121.909 90.3028 119.806 89.2509 117.93C89.4688 118.118 89.7306 118.249 90.012 118.309C90.2934 118.369 90.5855 118.357 90.8612 118.275C91.1371 118.193 91.3877 118.043 91.5902 117.838C91.7925 117.633 91.9403 117.381 92.0196 117.105C92.2284 117.262 92.4689 117.373 92.7245 117.428C92.9803 117.483 93.2447 117.482 93.5 117.424C93.7551 117.366 93.9946 117.254 94.2018 117.094C94.409 116.935 94.5789 116.732 94.6996 116.5C95.8721 117.326 97.4684 116.818 97.5321 115.577C96.8252 114.364 96.0296 113.028 95.2021 111.663Z" fill="#0C1523"/>
<path d="M86.9328 154.175L84.6112 157.166C84.293 155.927 83.9747 154.716 83.6246 153.54C84.7017 153.731 86.9328 154.175 86.9328 154.175Z" fill="#0C1523"/>
<path d="M54.4677 146.316C54.4567 146.595 54.3381 146.86 54.1364 147.053C53.9349 147.247 53.6661 147.355 53.3865 147.355C53.107 147.355 52.8381 147.247 52.6366 147.053C52.4351 146.86 52.3164 146.595 52.3053 146.316C52.3164 146.036 52.4351 145.772 52.6366 145.578C52.8381 145.385 53.107 145.276 53.3865 145.276C53.6661 145.276 53.9349 145.385 54.1364 145.578C54.3381 145.772 54.4567 146.036 54.4677 146.316Z" fill="#0C1523"/>
<path d="M68.98 136.768C68.98 137.055 68.8661 137.33 68.6631 137.533C68.4603 137.736 68.1849 137.85 67.898 137.85C67.611 137.85 67.3358 137.736 67.1328 137.533C66.93 137.33 66.8159 137.055 66.8159 136.768C66.8159 136.481 66.93 136.206 67.1328 136.003C67.3358 135.8 67.611 135.686 67.898 135.686C68.1849 135.686 68.4603 135.8 68.6631 136.003C68.8661 136.206 68.98 136.481 68.98 136.768Z" fill="#0C1523"/>
<path d="M82.8874 147.397C82.8874 147.684 82.7733 147.959 82.5705 148.162C82.3676 148.365 82.0922 148.479 81.8053 148.479C81.5184 148.479 81.2432 148.365 81.0402 148.162C80.8373 147.959 80.7233 147.684 80.7233 147.397C80.7233 147.11 80.8373 146.835 81.0402 146.632C81.2432 146.429 81.5184 146.315 81.8053 146.315C82.0922 146.315 82.3676 146.429 82.5705 146.632C82.7733 146.835 82.8874 147.11 82.8874 147.397Z" fill="#0C1523"/>
<path d="M101.853 150.42C101.853 150.707 101.739 150.983 101.537 151.186C101.334 151.388 101.058 151.502 100.771 151.502C100.484 151.502 100.209 151.388 100.006 151.186C99.8034 150.983 99.6893 150.707 99.6893 150.42C99.6893 150.134 99.8034 149.858 100.006 149.655C100.209 149.452 100.484 149.338 100.771 149.338C101.058 149.338 101.334 149.452 101.537 149.655C101.739 149.858 101.853 150.134 101.853 150.42Z" fill="#0C1523"/>
<path d="M111.723 133.873C111.723 134.16 111.609 134.435 111.406 134.638C111.203 134.841 110.928 134.955 110.641 134.955C110.354 134.955 110.079 134.841 109.876 134.638C109.673 134.435 109.559 134.16 109.559 133.873C109.559 133.586 109.673 133.31 109.876 133.107C110.079 132.905 110.354 132.791 110.641 132.791C110.928 132.791 111.203 132.905 111.406 133.107C111.609 133.31 111.723 133.586 111.723 133.873Z" fill="#0C1523"/>
<path d="M130.176 133.649C130.176 133.936 130.062 134.211 129.859 134.414C129.656 134.617 129.381 134.731 129.094 134.731C128.807 134.731 128.532 134.617 128.329 134.414C128.126 134.211 128.012 133.936 128.012 133.649C128.012 133.362 128.126 133.087 128.329 132.884C128.532 132.681 128.807 132.567 129.094 132.567C129.381 132.567 129.656 132.681 129.859 132.884C130.062 133.087 130.176 133.362 130.176 133.649Z" fill="#0C1523"/>
<path d="M136.414 118.979C136.414 119.266 136.3 119.541 136.097 119.744C135.894 119.947 135.619 120.061 135.332 120.061C135.045 120.061 134.77 119.947 134.567 119.744C134.364 119.541 134.25 119.266 134.25 118.979C134.25 118.692 134.364 118.417 134.567 118.214C134.77 118.011 135.045 117.897 135.332 117.897C135.619 117.897 135.894 118.011 136.097 118.214C136.3 118.417 136.414 118.692 136.414 118.979Z" fill="#0C1523"/>
<path d="M93.8656 165.281C93.8656 165.568 93.7516 165.844 93.5487 166.046C93.3459 166.249 93.0705 166.363 92.7836 166.363C92.4967 166.363 92.2215 166.249 92.0184 166.046C91.8156 165.844 91.7015 165.568 91.7015 165.281C91.7015 164.994 91.8156 164.719 92.0184 164.516C92.2215 164.313 92.4967 164.199 92.7836 164.199C93.0705 164.199 93.3459 164.313 93.5487 164.516C93.7516 164.719 93.8656 164.994 93.8656 165.281Z" fill="#0C1523"/>
<path d="M110.637 164.199C110.637 164.486 110.523 164.761 110.32 164.964C110.118 165.167 109.842 165.281 109.555 165.281C109.268 165.281 108.993 165.167 108.79 164.964C108.587 164.761 108.473 164.486 108.473 164.199C108.473 163.912 108.587 163.636 108.79 163.434C108.993 163.231 109.268 163.117 109.555 163.117C109.842 163.117 110.118 163.231 110.32 163.434C110.523 163.636 110.637 163.912 110.637 164.199Z" fill="#0C1523"/>
<path d="M296.708 131.867C295.594 131.931 293.621 132.026 293.176 132.058C294.003 129.418 295.47 129.385 296.708 131.867Z" fill="#0C1523"/>
<path d="M297.726 147.142C296.931 149.306 295.626 149.402 294.512 147.397C295.435 147.34 296.549 147.238 297.726 147.142Z" fill="#0C1523"/>
<path d="M180.649 110.994C180.649 111.281 180.535 111.556 180.332 111.759C180.13 111.962 179.853 112.076 179.567 112.076C179.28 112.076 179.004 111.962 178.801 111.759C178.599 111.556 178.485 111.281 178.485 110.994C178.485 110.707 178.599 110.432 178.801 110.229C179.004 110.026 179.28 109.912 179.567 109.912C179.853 109.912 180.13 110.026 180.332 110.229C180.535 110.432 180.649 110.707 180.649 110.994Z" fill="#0C1523"/>
<path d="M289.261 136.037C289.249 136.316 289.132 136.58 288.929 136.774C288.728 136.968 288.458 137.076 288.18 137.076C287.901 137.076 287.631 136.968 287.43 136.774C287.227 136.58 287.11 136.316 287.098 136.037C287.11 135.757 287.227 135.493 287.43 135.299C287.631 135.105 287.901 134.997 288.18 134.997C288.458 134.997 288.728 135.105 288.929 135.299C289.132 135.493 289.249 135.757 289.261 136.037Z" fill="#0C1523"/>
<path d="M263.834 207.384C263.824 205.555 263.719 203.727 263.516 201.91L272.713 193.381L263.834 207.384Z" fill="#0C1523"/>
<path d="M174.347 250.664C161.915 252.217 149.293 250.877 137.464 246.75" stroke="#0C1523" stroke-width="2.09375" stroke-linecap="round" stroke-linejoin="round"/>
<path d="M238.089 202.448C230.42 220.411 216.487 234.977 198.883 243.437" stroke="#0C1523" stroke-width="2.09375" stroke-linecap="round" stroke-linejoin="round"/>
<path d="M243.181 156.562C243.887 160.365 244.3 164.216 244.423 168.082" stroke="#0C1523" stroke-width="2.09375" stroke-linecap="round" stroke-linejoin="round"/>
<path d="M176.734 91.6421C195.308 94.5614 212.263 103.924 224.627 118.089" stroke="#0C1523" stroke-width="2.09375" stroke-linecap="round" stroke-linejoin="round"/>
<path d="M157.416 90.9423C161.038 90.6513 164.675 90.598 168.304 90.7831C168.94 90.8166 169.609 90.8468 170.245 90.9104" stroke="#0C1523" stroke-width="2.09375" stroke-linecap="round" stroke-linejoin="round"/>
<path d="M100.644 121.779C112.494 106.48 129.466 95.9713 148.443 92.1831" stroke="#0C1523" stroke-width="2.09375" stroke-linecap="round" stroke-linejoin="round"/>
<path d="M83.9377 174.925C83.8077 172.232 83.8183 169.533 83.9695 166.842C84.1223 163.975 84.4196 161.118 84.8606 158.281" stroke="#0C1523" stroke-width="2.09375" stroke-linecap="round" stroke-linejoin="round"/>
<path d="M120.883 238.666C111.67 232.758 103.756 225.04 97.6205 215.977" stroke="#0C1523" stroke-width="2.09375" stroke-linecap="round" stroke-linejoin="round"/>
<path d="M228.256 126.488C229.182 126.46 230.1 126.321 230.993 126.074L227.683 129.225" stroke="#0C1523" stroke-width="2.09375" stroke-linecap="round" stroke-linejoin="round"/>
<path d="M311.188 135.113L317.458 132.249C321.434 130.435 321.478 128.5 316.726 130.021C316.438 130.113 309.374 132.214 308.26 132.376C307.401 132.502 305.915 132.629 305.748 132.058C305.109 129.88 307.758 123.998 305.907 123.401C304.699 123.014 302.636 126.81 301.324 129.544C300.406 131.456 298.811 131.771 296.709 131.867" stroke="#0C1523" stroke-width="2.09375" stroke-linecap="round" stroke-linejoin="round"/>
<path d="M310.042 135.239C310.042 135.239 319.59 134.067 320.226 133.966C325.188 133.244 324.841 135.117 320.608 136.289C316.566 137.408 311.697 138.802 311.697 138.802" stroke="#0C1523" stroke-width="2.09375" stroke-linecap="round" stroke-linejoin="round"/>
<path d="M310.042 138.773C313.174 138.867 316.308 138.782 319.431 138.519C324.425 138.128 323.884 139.792 319.653 140.842C317.044 141.555 314.384 142.076 311.697 142.401" stroke="#0C1523" stroke-width="2.09375" stroke-linecap="round" stroke-linejoin="round"/>
<path d="M297.726 147.143C297.726 147.143 304.632 146.691 305.969 146.57C308.545 146.336 311.192 145.925 313.766 145.584C314.657 145.465 315.707 145.302 316.917 145.081C321.376 144.244 322.039 142.589 316.98 142.726C314.265 142.791 311.552 142.534 308.897 141.962" stroke="#0C1523" stroke-width="2.09375" stroke-linecap="round" stroke-linejoin="round"/>
<path d="M309.851 133.713C310.335 137.677 309.471 141.689 307.401 145.103" stroke="#0C1523" stroke-width="2.09375" stroke-linecap="round" stroke-linejoin="round"/>
<path d="M306.096 133.649C305.349 135.624 304.2 137.422 302.719 138.929C301.24 140.435 299.465 141.618 297.503 142.401" stroke="#0C1523" stroke-width="2.09375" stroke-linecap="round" stroke-linejoin="round"/>
<path d="M244.984 151.581C244.761 152.217 244.538 152.885 244.284 153.591C242.629 152.477 241.225 151.756 240.751 151.363C242.183 151.421 243.583 151.517 244.984 151.581Z" stroke="#0C1523" stroke-width="2.09375" stroke-linecap="round" stroke-linejoin="round"/>
<path d="M212.79 147.938L216.259 142.941C215.358 144.91 214.889 147.049 214.886 149.214" stroke="#0C1523" stroke-width="2.09375" stroke-linecap="round" stroke-linejoin="round"/>
<path d="M224.283 132.408C225.433 132.408 226.921 131.419 227.688 129.225C227.996 128.342 228.189 127.422 228.261 126.488C225.269 126.52 221.427 124.981 225.778 115.192C226.715 113.088 228.532 109.871 230.79 110.363C232.986 110.844 234.493 114.731 234.307 117.231C234.232 118.304 234.977 118.041 235.86 117.413C238.326 115.651 240.061 119.862 235.446 121.835C235.14 122.172 234.91 122.572 234.776 123.008C233.585 128.033 233.544 132.172 238.595 133.319" stroke="#0C1523" stroke-width="2.09375" stroke-linecap="round" stroke-linejoin="round"/>
<path d="M228.637 110.993C235.066 104.724 254.161 93.7123 251.551 106.57C251.551 106.57 265.678 94.4141 270.899 98.7407C276.092 103.039 256.101 126.077 234.684 130.469" stroke="#0C1523" stroke-width="2.09375" stroke-linecap="round" stroke-linejoin="round"/>
<path d="M296.167 148.861C292.4 148.861 290.922 130.317 294.735 130.02C274.3 132.198 253.108 135.607 238.599 133.298C233.55 139.524 229.431 146.449 226.371 153.857C224.428 146.884 223.721 139.624 224.283 132.407C221.547 132.185 191.695 112.391 179.126 105.04C176.401 106.883 174.079 109.261 172.302 112.029C170.523 114.797 169.327 117.897 168.783 121.141L214.891 149.214C214.879 149.729 214.891 150.268 214.919 150.844C215.155 155.112 216.789 161.191 221.386 170.978C227.073 172.674 235.887 169.55 241.182 166.49C240.847 161.839 243.557 155.971 244.989 151.583C262.109 152.365 278.459 151.008 296.167 148.861Z" stroke="#0C1523" stroke-width="2.09375" stroke-linecap="round" stroke-linejoin="round"/>
<path d="M221.413 170.978L193.918 200.414C188.952 205.719 185.329 212.136 183.354 219.127L173.074 255.054C175.912 257.56 179.312 259.342 182.989 260.247C186.664 261.151 190.505 261.151 194.179 260.247L204.732 222.02C235.959 194.687 230.609 199.359 234.073 196.371L251.099 222.306C252.099 223.827 253.418 225.112 254.962 226.075C256.508 227.036 258.242 227.653 260.049 227.879C261.854 228.107 263.687 227.939 265.422 227.388C267.158 226.839 268.752 225.919 270.097 224.693L302.271 195.32C301.425 191.672 299.731 188.275 297.328 185.404C294.926 182.533 291.879 180.269 288.437 178.795L263.509 201.91C263.509 201.91 259.213 173.555 241.138 166.49" stroke="#0C1523" stroke-width="2.09375" stroke-linecap="round" stroke-linejoin="round"/>
<path d="M231.534 198.569L229.306 189.117L234.08 196.373" stroke="#0C1523" stroke-width="2.09375" stroke-linecap="round" stroke-linejoin="round"/>
<path d="M175.079 256.582C173.825 263.332 171.905 269.94 169.351 276.313C166.927 281.784 165.028 286.683 165.723 287.515C168.158 290.428 176.443 277.846 182.59 274.626C184.054 273.899 185.364 272.894 186.442 271.667C188.602 269.117 187.396 266.161 189.91 260.846" stroke="#0C1523" stroke-width="2.09375" stroke-linecap="round" stroke-linejoin="round"/>
<path d="M300.972 191.408C306.242 186.922 311.768 182.746 317.521 178.902C322.516 175.591 326.749 172.474 326.622 171.423C326.171 167.668 312.367 173.753 305.491 173.174C303.857 173.003 302.205 173.144 300.622 173.588C297.44 174.549 297.026 177.566 292.029 180.716" stroke="#0C1523" stroke-width="2.09375" stroke-linecap="round" stroke-linejoin="round"/>
<path d="M168.11 101.411C168.11 94.376 173.58 81.2607 175.716 80.1854C175.773 80.1596 175.835 80.1487 175.895 80.1542C175.957 80.1598 176.016 80.1812 176.068 80.2165C176.118 80.2521 176.158 80.3 176.185 80.3559C176.212 80.4118 176.223 80.4738 176.218 80.5355C175.486 88.0495 170.612 100.883 177.406 106.289" stroke="#0C1523" stroke-width="2.09375" stroke-linecap="round" stroke-linejoin="round"/>
<path d="M169.605 117.929C167.155 116.274 163.698 113.407 163.813 110.609C164.133 102.878 164.085 99.248 164.1 96.1928C164.111 93.9332 165.889 93.8679 167.091 97.784C168.146 101.219 169.255 106.059 169.255 106.059" stroke="#0C1523" stroke-width="2.09375" stroke-linecap="round" stroke-linejoin="round"/>
<path d="M174.729 89.4454C175.399 88.3315 176.125 87.1841 176.416 86.7101C178.543 83.2496 179.398 84.0971 179.217 84.737C178.508 87.2394 176.798 91.0048 176.225 93.328C175.371 96.7467 173.917 101.519 176.627 105.579" stroke="#0C1523" stroke-width="2.09375" stroke-linecap="round" stroke-linejoin="round"/>
<path d="M142.238 202.616C142.238 202.616 135.904 203.984 127.344 205.034" stroke="#0C1523" stroke-width="2.09375" stroke-linecap="round" stroke-linejoin="round"/>
<path d="M83.842 175.084C84.6691 173.705 85.7611 172.504 87.0547 171.551V171.678C97.3023 173.142 105.004 173.079 112.96 171.008C112.847 173.154 112.484 175.28 111.878 177.341C121.551 177.119 131.246 177.383 140.965 178.137C143.24 178.313 145.45 178.983 147.44 180.102C149.429 181.219 151.151 182.758 152.484 184.611C153.817 186.464 154.73 188.586 155.159 190.827C155.587 193.068 155.522 195.376 154.966 197.591C151.28 213.18 146.733 228.553 141.346 243.64C134.141 244.834 126.752 243.229 120.692 239.152C122.276 227.669 124.486 216.28 127.312 205.038C117.702 206.21 103.416 207.287 93.6441 204.592C87.8537 202.996 83.1335 199.663 81.0816 193.994C78.7383 187.562 80.8488 179.76 83.842 175.084Z" stroke="#0C1523" stroke-width="2.09375" stroke-linecap="round" stroke-linejoin="round"/>
<path d="M111.91 177.375C110.319 177.407 108.76 177.471 107.2 177.535" stroke="#0C1523" stroke-width="2.09375" stroke-linecap="round" stroke-linejoin="round"/>
<path d="M102.845 206.045L90.5504 229.437C89.426 231.574 87.8616 233.45 85.9601 234.939C84.0587 236.43 81.8632 237.5 79.5184 238.08C77.1736 238.661 74.7324 238.738 72.3556 238.306C69.9789 237.875 67.7204 236.946 65.7286 235.579L36.0426 215.245C38.6556 206.546 42.225 200.878 49.3387 196.453L72.8306 211.493L81.1051 193.989" stroke="#0C1523" stroke-width="2.09375" stroke-linecap="round" stroke-linejoin="round"/>
<path d="M87.9139 202.134L100.039 211.395" stroke="#0C1523" stroke-width="2.09375" stroke-linecap="round" stroke-linejoin="round"/>
<path d="M98.3843 131.995L94.5653 129.385C95.6651 129.508 96.7733 129.54 97.8785 129.481" stroke="#0C1523" stroke-width="2.09375" stroke-linecap="round" stroke-linejoin="round"/>
<path d="M105.513 132.79C104.94 133.14 104.368 133.46 103.795 133.808C103.173 134.297 102.403 134.56 101.612 134.554C100.82 134.549 100.055 134.274 99.4398 133.777C98.4643 132.554 97.9176 131.044 97.8837 129.48C103.003 129.18 103.316 125.738 97.5303 115.542C97.47 115.839 97.332 116.115 97.1305 116.341C96.929 116.567 96.671 116.736 96.3831 116.829C96.095 116.923 95.7873 116.939 95.4913 116.875C95.1952 116.811 94.9215 116.67 94.6979 116.465C94.5835 116.704 94.4166 116.913 94.2099 117.077C94.0032 117.242 93.7619 117.358 93.5041 117.416C93.2463 117.474 92.9788 117.473 92.7214 117.413C92.4639 117.353 92.2236 117.236 92.0179 117.07C91.9383 117.347 91.7906 117.599 91.5881 117.803C91.3857 118.008 91.1351 118.158 90.8596 118.24C90.5839 118.323 90.2919 118.334 90.0105 118.275C89.7291 118.215 89.4673 118.085 89.2491 117.898C90.3311 119.774 90.7767 121.874 89.3127 120.442C87.6578 118.82 85.8756 121.206 88.487 123.149C88.9757 123.587 89.335 124.151 89.5258 124.779C89.7166 125.407 89.7315 126.075 89.569 126.711C91.0789 128.914 91.6824 131.613 91.2541 134.249C90.9676 135.589 89.0581 136.636 86.7316 136.031C89.507 141.018 95.2188 145.612 100.773 143.649C106.885 141.497 105.513 132.79 105.513 132.79Z" stroke="#0C1523" stroke-width="2.09375" stroke-linecap="round" stroke-linejoin="round"/>
<path d="M145.055 106.639C152.916 100.694 153.226 88.1249 153.226 79.1117C153.226 78.8253 153.638 78.4417 153.86 78.6092C155.849 79.9023 158.493 93.304 157.857 100.356" stroke="#0C1523" stroke-width="2.09375" stroke-linecap="round" stroke-linejoin="round"/>
<path d="M154.075 117.324C156.33 116.416 158.198 114.75 159.358 112.614C161.781 107.22 162.629 101.252 161.805 95.3966C161.373 92.8539 160.053 93.0733 158.909 96.9242C157.889 100.361 156.299 104.976 156.299 104.976" stroke="#0C1523" stroke-width="2.09375" stroke-linecap="round" stroke-linejoin="round"/>
<path d="M144.923 106.555C147.114 103.875 149.175 99.1182 149.08 96.6074C148.823 93.7924 148.333 91.0035 147.616 88.2692C147.472 87.5992 148.308 86.7081 150.735 91.2842" stroke="#0C1523" stroke-width="2.09375" stroke-linecap="round" stroke-linejoin="round"/>
<path d="M115.284 147.366C115.165 145.955 114.963 144.552 114.679 143.165L117.188 146.336" stroke="#0C1523" stroke-width="2.09375" stroke-linecap="round" stroke-linejoin="round"/>
<path d="M112.992 171.01H113.024C114.392 162.926 115.888 154.747 115.283 147.365C127.992 140.699 144.144 127.776 154.143 118.979C155.277 117.845 151.306 112.824 150.214 111.536C149.093 110.214 144.711 105.348 143.165 106.122C131.484 116.164 118.889 125.092 105.545 132.79" stroke="#0C1523" stroke-width="2.09375" stroke-linecap="round" stroke-linejoin="round"/>
<path d="M138.132 244.045C137.312 247.293 136.685 250.587 136.254 253.911C131.274 250.649 126.92 246.52 123.397 241.722C123.525 241.444 123.631 241.157 123.715 240.862" stroke="#0C1523" stroke-width="2.09375" stroke-linecap="round" stroke-linejoin="round"/>
<path d="M123.365 253.871C122.339 251.953 121.569 249.91 121.076 247.792C120.534 249.072 120.25 250.446 120.238 251.836C120.638 253.817 121.336 255.727 122.307 257.499C125.585 263.609 128.863 276.403 131.218 276.244C131.568 276.212 131.95 275.544 132.332 274.43C129.826 271.509 126.611 259.829 123.365 253.871Z" stroke="#0C1523" stroke-width="2.09375" stroke-linecap="round" stroke-linejoin="round"/>
<path d="M123.365 241.753C122.635 243.854 121.71 245.954 121.076 247.798C121.57 249.916 122.339 251.959 123.365 253.877C126.58 259.828 129.794 271.508 132.34 274.436C133.74 270.267 135.236 259.798 136.223 253.909C131.255 250.644 126.903 246.531 123.365 241.753Z" stroke="#0C1523" stroke-width="2.09375" stroke-linecap="round" stroke-linejoin="round"/>
<path d="M37.4112 211.204C34.6028 209.619 31.7015 208.206 28.723 206.971C33.183 203.033 38.3141 199.93 43.8717 197.806C44.731 198.379 44.8583 198.601 45.6857 199.079" stroke="#0C1523" stroke-width="2.09375" stroke-linecap="round" stroke-linejoin="round"/>
<path d="M34.9923 192.108C32.9746 191.958 30.9457 192.119 28.9774 192.588C22.2305 194.145 8.99298 193.891 8.54241 196.214C8.47876 196.564 9.01978 197.105 9.97453 197.773C13.4435 196.087 25.5671 196.087 32.2185 194.591C34.3339 194.093 36.5081 193.889 38.679 193.988C37.5899 193.118 36.3357 192.479 34.9923 192.108Z" stroke="#0C1523" stroke-width="2.09375" stroke-linecap="round" stroke-linejoin="round"/>
<path d="M38.6522 193.954C36.4812 193.859 34.3074 194.063 32.1917 194.559C25.5721 196.087 13.4484 196.087 9.97949 197.773C13.6075 200.256 23.3125 204.489 28.7228 206.971C33.1953 203.026 38.3361 199.911 43.9033 197.773C42.0256 196.5 40.2434 195.068 38.6522 193.954Z" stroke="#0C1523" stroke-width="2.09375" stroke-linecap="round" stroke-linejoin="round"/>
<path d="M18.445 148.416C17.2356 148.829 15.6745 149.303 14.09 149.784C11.1604 150.668 10.08 150.134 13.0079 148.129C15.7762 146.249 18.8307 144.831 22.0529 143.928" stroke="#0C1523" stroke-width="2.09375" stroke-linecap="round" stroke-linejoin="round"/>
<path d="M24.9675 140.237C24.0837 141.1 23.2839 142.045 22.5789 143.059C21.3136 144.955 20.4579 147.094 20.0664 149.339" stroke="#0C1523" stroke-width="2.09375" stroke-linecap="round" stroke-linejoin="round"/>
<path d="M17.3312 145.679C6.73341 149.403 5.40346 147.666 14.2759 143.61C17.6993 142.145 21.2631 141.033 24.9122 140.291" stroke="#0C1523" stroke-width="2.09375" stroke-linecap="round" stroke-linejoin="round"/>
<path d="M38.0859 148.478C33.6522 148.23 24.1918 149.884 17.331 152.163C14.3394 153.15 12.7398 152.498 16.0579 149.999C17.4559 148.954 18.954 148.05 20.5302 147.301" stroke="#0C1523" stroke-width="2.09375" stroke-linecap="round" stroke-linejoin="round"/>
<path d="M19.7164 141.574C16.1537 142.401 8.03329 142.706 20.6712 138.614C22.6443 137.976 25.0262 137.442 27.259 136.959C27.3851 136.13 27.2399 135.281 26.8452 134.541C25.5052 132.296 25.9575 131.385 28.1501 132.727C30.9327 134.62 34.2368 135.599 37.6021 135.527" stroke="#0C1523" stroke-width="2.09375" stroke-linecap="round" stroke-linejoin="round"/>
<path d="M27.2588 136.956C27.2447 137.796 27.4042 138.63 27.7273 139.406C28.0504 140.182 28.5303 140.883 29.1368 141.464C29.7432 142.046 30.4632 142.496 31.2518 142.787C32.0402 143.078 32.8803 143.202 33.7193 143.154" stroke="#0C1523" stroke-width="2.09375" stroke-linecap="round" stroke-linejoin="round"/>
<path d="M97.5252 115.575C97.4616 116.816 95.8703 117.325 94.6928 116.498C94.5722 116.73 94.4024 116.933 94.1953 117.093C93.9881 117.253 93.7484 117.365 93.4933 117.423C93.2381 117.48 92.9734 117.482 92.7176 117.426C92.4619 117.371 92.2213 117.26 92.0128 117.102C91.9331 117.379 91.7852 117.631 91.5827 117.835C91.3802 118.039 91.1296 118.189 90.8539 118.272C90.5783 118.354 90.2864 118.365 90.0051 118.305C89.7239 118.245 89.4621 118.116 89.244 117.928C90.2943 119.806 90.7716 121.908 89.3077 120.474C87.6528 118.853 85.8773 121.2 88.4802 123.179C88.9697 123.617 89.3295 124.182 89.5204 124.81C89.7112 125.439 89.7256 126.107 89.5623 126.744C86.9225 122.322 82.2124 118.821 81.1303 117.739C78.6178 115.226 80.3983 113.634 82.5306 114.556C82.0281 113.188 83.6445 112.044 85.1386 113.188C84.7249 111.848 86.7315 110.737 88.4484 112.138C88.162 110.674 90.6443 110.069 92.0765 111.342C91.8537 110.037 94.1501 109.938 95.1953 111.66C96.0328 113.026 97.5252 115.575 97.5252 115.575Z" stroke="#0C1523" stroke-width="2.09375" stroke-linecap="round" stroke-linejoin="round"/>
<path d="M84.6058 157.166L86.9324 154.175C85.7884 153.954 84.7063 153.729 83.6243 153.54" stroke="#0C1523" stroke-width="2.09375" stroke-linecap="round" stroke-linejoin="round"/>
<path d="M86.7382 136.036C86.3245 135.877 66.3032 130.658 38.1749 133.356C36.6495 139.052 36.8242 145.071 38.6774 150.669C53.7179 149.446 68.8564 150.413 83.6194 153.538C85.4123 159.4 86.5642 165.439 87.0548 171.549" stroke="#0C1523" stroke-width="2.09375" stroke-linecap="round" stroke-linejoin="round"/>
<path d="M67.0382 99.5665C67.1128 100.429 66.93 101.294 66.5131 102.052C66.0961 102.81 65.4637 103.428 64.6958 103.827C63.9278 104.226 63.0586 104.389 62.1985 104.294C61.3382 104.199 60.5253 103.851 59.8627 103.295C59.1999 102.738 58.7172 101.998 58.4753 101.167C58.2334 100.336 58.2433 99.4515 58.5038 98.6263C58.7644 97.8008 59.2636 97.0714 59.9386 96.5297C60.6136 95.9882 61.4342 95.6587 62.2963 95.5833C63.4526 95.4862 64.6003 95.8505 65.4889 96.5968C66.3773 97.3432 66.9344 98.4107 67.0382 99.5665Z" stroke="#0C1523" stroke-width="2.09375" stroke-linecap="round" stroke-linejoin="round"/>
<path d="M241.495 251.301H227.714" stroke="#0C1523" stroke-width="2.09375" stroke-linecap="round" stroke-linejoin="round"/>
<path d="M234.605 258.206V244.396" stroke="#0C1523" stroke-width="2.09375" stroke-linecap="round" stroke-linejoin="round"/>
<path d="M48.2397 132.695C46.6835 138.505 46.9728 144.656 49.0672 150.294" stroke="#0C1523" stroke-width="2.09375" stroke-linecap="round" stroke-linejoin="round"/>
<path d="M137.182 111.151C141.966 114.35 145.86 118.709 148.5 123.822" stroke="#0C1523" stroke-width="2.09375" stroke-linecap="round" stroke-linejoin="round"/>
<path d="M296.708 131.867C295.594 131.931 293.621 132.026 293.175 132.058C294.002 129.418 295.47 129.385 296.708 131.867Z" stroke="#0C1523" stroke-width="2.09375" stroke-linecap="round" stroke-linejoin="round"/>
<path d="M297.726 147.142C296.931 149.306 295.626 149.402 294.512 147.397C295.435 147.34 296.549 147.238 297.726 147.142Z" stroke="#0C1523" stroke-width="2.09375" stroke-linecap="round" stroke-linejoin="round"/>
<path d="M236.498 168.781C249.388 177.826 252.913 188.992 258.329 208.814C258.518 209.506 258.881 210.137 259.384 210.65C259.888 211.16 260.513 211.534 261.201 211.737C261.89 211.938 262.618 211.959 263.317 211.8C264.017 211.639 264.664 211.304 265.196 210.824L295.47 183.391" stroke="#0C1523" stroke-width="2.09375" stroke-linecap="round" stroke-linejoin="round"/>
<path d="M186.441 260.815L197.419 218.746L229.688 190.708" stroke="#0C1523" stroke-width="2.09375" stroke-linecap="round" stroke-linejoin="round"/>
<path d="M104.144 176.07C102.927 178.132 101.284 179.911 99.3248 181.29C97.3658 182.666 95.1355 183.611 92.783 184.058" stroke="#0C1523" stroke-width="2.09375" stroke-linecap="round" stroke-linejoin="round"/>
<path d="M122.443 228.292C125.664 230.615 129.333 232.243 133.218 233.072C137.103 233.9 141.118 233.91 145.006 233.101" stroke="#0C1523" stroke-width="2.09375" stroke-linecap="round" stroke-linejoin="round"/>
<path d="M57.9048 201.946C51.6688 206.147 47.6873 212.957 45.272 221.543" stroke="#0C1523" stroke-width="2.09375" stroke-linecap="round" stroke-linejoin="round"/>
<path d="M272.714 193.381L263.836 207.384C263.826 205.555 263.72 203.727 263.518 201.91" stroke="#0C1523" stroke-width="2.09375" stroke-linecap="round" stroke-linejoin="round"/>
<path d="M145.065 106.639C149.625 103.202 150.735 98.0961 150.894 93.4514C150.568 90.2029 150.015 86.9813 149.239 83.8101C149.139 83.1736 150.035 82.4098 151.849 86.0696L152.899 88.3543" stroke="#0C1523" stroke-width="2.09375" stroke-linecap="round" stroke-linejoin="round"/>
<path d="M164.163 48.2661C161.613 48.2661 159.119 49.0226 156.998 50.4398C154.877 51.857 153.224 53.8712 152.248 56.2279C151.271 58.5846 151.016 61.1779 151.514 63.6798C152.011 66.1816 153.24 68.4799 155.044 70.2835C156.847 72.0873 159.145 73.3156 161.647 73.8132C164.149 74.311 166.742 74.0556 169.1 73.0794C171.456 72.1032 173.47 70.45 174.887 68.3291C176.304 66.2081 177.061 63.7145 177.061 61.1636C177.064 59.469 176.733 57.7905 176.086 56.2244C175.438 54.6581 174.488 53.235 173.291 52.0369C172.091 50.8386 170.669 49.8887 169.103 49.2417C167.537 48.5946 165.858 48.2631 164.163 48.2661Z" stroke="#0C1523" stroke-width="2.09375" stroke-linejoin="round"/>
<path d="M162.907 54.1581C162.907 54.4913 163.039 54.8108 163.275 55.0464C163.511 55.282 163.83 55.4144 164.163 55.4144C164.496 55.4144 164.816 55.282 165.052 55.0464C165.287 54.8108 165.419 54.4913 165.419 54.1581C165.419 53.8249 165.287 53.5054 165.052 53.2698C164.816 53.0342 164.496 52.9019 164.163 52.9019C163.83 52.9019 163.511 53.0342 163.275 53.2698C163.039 53.5054 162.907 53.8249 162.907 54.1581Z" stroke="#0C1523" stroke-width="2.09375" stroke-linejoin="round"/>
<path d="M164.778 58.8166C164.778 58.4697 164.497 58.1885 164.15 58.1885C163.803 58.1885 163.522 58.4697 163.522 58.8166H164.778ZM163.522 69.1807C163.522 69.5276 163.803 69.8088 164.15 69.8088C164.497 69.8088 164.778 69.5276 164.778 69.1807H163.522ZM163.522 58.8166V69.1807H164.778V58.8166H163.522Z" fill="#0C1523"/>
<rect x="132.953" y="347.61" width="25.125" height="8.375" rx="4.1875" fill="#3787FF"/>
<circle cx="168.547" cy="351.798" r="4.1875" fill="#F0F1F3"/>
<circle cx="183.203" cy="351.798" r="4.1875" fill="#F0F1F3"/>
<circle cx="197.859" cy="351.798" r="4.1875" fill="#F0F1F3"/>
</svg>
