<svg width="336" height="356" viewBox="0 0 336 356" fill="none" xmlns="http://www.w3.org/2000/svg">
<path d="M159.948 143.249C149.478 148.596 134.616 168.454 134.616 168.454L116.507 147.065C108.477 149.61 101.66 155.012 97.3485 162.249L121.695 189.841C124.34 192.833 127.966 194.784 131.92 195.344C135.875 195.904 139.9 195.036 143.272 192.896L173.924 173.387L158.076 188.472L152.793 259.633C160.914 262.711 169.902 262.585 177.934 259.283L184.904 150.505C179.457 153.751 165.581 149.075 159.948 143.249Z" fill="#3787FF"/>
<path d="M179.011 130.105C177.703 130.105 176.448 130.625 175.523 131.55C174.598 132.475 174.079 133.73 174.079 135.038C174.079 136.347 174.598 137.601 175.523 138.526C176.448 139.452 177.703 139.971 179.011 139.971C180.32 139.971 181.574 139.452 182.5 138.526C183.425 137.601 183.944 136.347 183.944 135.038C183.944 133.73 183.425 132.475 182.5 131.55C181.574 130.625 180.32 130.105 179.011 130.105Z" fill="#3787FF"/>
<path d="M218.793 241.684C218.791 245.75 220.212 249.689 222.811 252.816C225.409 255.944 229.021 258.063 233.018 258.806V296.9H239.415V258.806C243.411 258.06 247.021 255.94 249.619 252.813C252.217 249.686 253.639 245.749 253.641 241.684H218.793ZM236.201 253.841C235.771 253.841 235.344 253.756 234.947 253.591C234.549 253.427 234.188 253.185 233.883 252.881C233.579 252.576 233.338 252.215 233.173 251.817C233.008 251.419 232.924 250.993 232.924 250.562C232.924 250.132 233.009 249.706 233.174 249.308C233.339 248.91 233.58 248.549 233.885 248.245C234.189 247.94 234.55 247.699 234.948 247.534C235.346 247.37 235.772 247.285 236.203 247.285C237.072 247.286 237.906 247.631 238.52 248.246C239.135 248.861 239.48 249.695 239.48 250.564C239.48 251.433 239.134 252.267 238.519 252.882C237.904 253.496 237.07 253.841 236.201 253.841Z" fill="#3787FF"/>
<path d="M104.636 296.81C104.798 294.803 105.454 292.868 106.546 291.177C110.871 284.716 114.184 279.284 114.184 263.648H91.9382C91.9382 278.22 94.7237 283.413 99.4171 290.89C100.607 292.654 101.33 294.69 101.518 296.81C101.39 301.933 100.848 303.747 95.7572 305.53H110.397C105.337 303.742 104.7 301.928 104.636 296.81ZM99.0989 280.292L100.499 275.646L96.6165 272.718L101.486 272.623L103.077 268.04L104.668 272.623L109.537 272.718L105.655 275.646L107.055 280.292L103.077 277.524L99.0989 280.292Z" fill="#3787FF"/>
<path d="M173.888 173.389L158.039 188.474L158.421 183.223L173.888 173.389Z" fill="#0C1523"/>
<path d="M175.705 286.208C173.772 277.814 173.276 269.154 174.238 260.595C168.766 262.108 163.004 262.237 157.469 260.97C157.847 264.959 157.381 268.981 156.101 272.777C158.329 275.344 162.851 276.533 163.771 286.239C163.905 287.593 164.536 288.848 165.54 289.765C166.545 290.681 167.853 291.194 169.213 291.204H186.239C184.936 289.674 183.323 288.438 181.508 287.577C179.692 286.716 177.714 286.249 175.705 286.208Z" fill="#0C1523"/>
<path d="M103.01 135.485C90.5665 133.416 71.3124 132.493 64.0563 135.485C70.9511 140.363 78.3846 144.432 86.2098 147.61C89.1763 148.414 91.8914 149.955 94.1024 152.091L99.9264 158.647C103.494 153.971 108.238 150.325 113.675 148.081L103.01 135.485Z" fill="#0C1523"/>
<path d="M175.065 102.927L177.484 105.696C177.566 105.061 177.733 104.441 177.986 103.854C176.985 103.639 176.007 103.329 175.065 102.927Z" fill="#0C1523"/>
<path d="M165.32 83.6091C156.67 92.7747 170.323 100.763 171.35 101.337C171.315 98.744 171.07 96.1577 170.618 93.6038C167.117 92.4313 168.74 88.2891 171.095 89.9188C171.839 90.5118 172.615 90.8635 172.75 89.9188C173.737 83.9357 178.288 82.3445 181.152 87.882C177.261 80.0129 172.064 77.1872 165.32 83.6091Z" fill="#0C1523"/>
<path d="M166.059 72.5667C165.048 71.7298 163.814 71.2067 162.509 71.062C161.205 70.9173 159.886 71.1572 158.716 71.7522C157.546 72.3472 156.576 73.2714 155.925 74.4109C155.273 75.5504 154.969 76.8555 155.05 78.1655C155.131 79.4756 155.593 80.7335 156.379 81.7842C157.166 82.835 158.243 83.6329 159.477 84.0796C160.711 84.5263 162.049 84.6023 163.326 84.2984C164.603 83.9944 165.763 83.3237 166.663 82.3688C167.837 80.9684 168.429 79.171 168.316 77.3472C168.204 75.5234 167.396 73.8123 166.059 72.5667Z" fill="#0C1523"/>
<path d="M138.594 119.03C138.307 121.895 138.88 124.223 140.28 124.695C141.935 125.236 143.813 123.772 145.532 121.449C143.194 120.718 140.88 119.911 138.594 119.03Z" fill="#0C1523"/>
<path d="M159.662 130.997L157.721 133.702C157.306 132.471 156.859 131.251 156.381 130.042C157.53 130.361 158.644 130.679 159.662 130.997Z" fill="#0C1523"/>
<path d="M181.144 14.6763V53.3437C206.699 62.6366 232.255 44.0508 257.81 53.3437V14.6763C232.255 5.38338 206.693 23.9692 181.144 14.6763Z" fill="#0C1523"/>
<path d="M257.81 85.7417V111.202" stroke="#0C1523" stroke-width="2.09375" stroke-linecap="round" stroke-linejoin="round"/>
<path d="M257.81 8.375V67.5059" stroke="#0C1523" stroke-width="2.09375" stroke-linecap="round" stroke-linejoin="round"/>
<path d="M183.244 107.86L179.011 130.106L163.799 108.401" stroke="#0C1523" stroke-width="2.09375" stroke-linecap="round" stroke-linejoin="round"/>
<path d="M159.948 143.249C149.478 148.596 134.616 168.454 134.616 168.454L116.507 147.065C108.477 149.61 101.661 155.012 97.3485 162.249L121.636 189.841C124.282 192.831 127.907 194.781 131.86 195.341C135.814 195.901 139.838 195.034 143.21 192.896L158.422 183.221L152.758 259.633C160.897 262.684 169.888 262.548 177.931 259.251L184.901 150.505" stroke="#0C1523" stroke-width="2.09375" stroke-linecap="round" stroke-linejoin="round"/>
<path d="M173.888 173.388L158.039 188.473L158.421 183.222L173.888 173.388Z" stroke="#0C1523" stroke-width="2.09375" stroke-linecap="round" stroke-linejoin="round"/>
<path d="M188.304 294.56C187.812 293.334 187.112 292.201 186.236 291.21H169.241C167.883 291.195 166.578 290.68 165.575 289.765C164.571 288.849 163.939 287.597 163.799 286.246C163.584 282.734 162.357 279.36 160.267 276.531C159.501 275.609 157.211 273.985 156.129 272.775C154.57 278.217 155.834 277.874 157.53 279.904C159.628 282.714 160.856 286.078 161.062 289.579C161.184 290.933 161.806 292.192 162.806 293.113C163.806 294.034 165.113 294.549 166.472 294.559L188.304 294.56Z" stroke="#0C1523" stroke-width="2.09375" stroke-linecap="round" stroke-linejoin="round"/>
<path d="M174.234 260.595C173.278 269.143 173.774 277.792 175.702 286.175C177.705 286.214 179.678 286.678 181.489 287.536C183.299 288.395 184.907 289.629 186.204 291.157H169.209C167.85 291.152 166.541 290.643 165.536 289.729C164.531 288.815 163.9 287.56 163.767 286.207C163.571 282.692 162.342 279.312 160.235 276.492C159.449 275.559 157.148 273.946 156.097 272.737C156.257 272.196 156.416 271.623 156.638 270.955C157.473 267.707 157.756 264.342 157.476 261" stroke="#0C1523" stroke-width="2.09375" stroke-linecap="round" stroke-linejoin="round"/>
<path d="M113.675 148.087L103.01 135.484C90.5664 133.415 71.3123 132.492 64.0562 135.484C70.9538 140.358 78.3867 144.426 86.2098 147.609C89.1779 148.412 91.893 149.954 94.1024 152.09L99.9263 158.646" stroke="#0C1523" stroke-width="2.09375" stroke-linecap="round" stroke-linejoin="round"/>
<path d="M64.0596 135.484C62.6708 134.507 61.3123 133.488 59.986 132.429C67.021 129.055 87.4828 129.724 100.117 132.047L103.01 135.484" stroke="#0C1523" stroke-width="2.09375" stroke-linecap="round" stroke-linejoin="round"/>
<path d="M177.484 105.693L175.035 102.927C175.993 103.321 176.983 103.631 177.995 103.85" stroke="#0C1523" stroke-width="2.09375" stroke-linecap="round" stroke-linejoin="round"/>
<path d="M85.6369 89.1101C85.5733 89.2056 82.7894 87.1453 79.4311 84.5876C75.669 81.7401 76.0241 79.911 80.9268 82.519C83.3454 83.9582 85.9937 84.9702 88.7558 85.5105" stroke="#0C1523" stroke-width="2.09375" stroke-linecap="round" stroke-linejoin="round"/>
<path d="M90.6971 82.9411C90.6971 82.9411 82.3221 76.9899 81.7861 76.5761C77.8716 73.5846 76.7025 74.9145 79.6857 78.2629C82.4293 81.3432 86.1461 84.8825 86.1461 84.8825" stroke="#0C1523" stroke-width="2.09375" stroke-linecap="round" stroke-linejoin="round"/>
<path d="M148.205 104.455C127.582 97.1668 105.43 86.6997 105.273 86.6327C103.569 85.9075 101.836 83.7367 102.154 82.1102C102.697 79.3415 103.906 75.3885 102.504 75.1087C100.374 74.685 99.0989 80.6463 97.0939 82.0148C96.3938 82.4921 94.3905 81.0265 93.6886 80.3599C92.5161 79.2426 88.5347 75.489 88.1511 75.1087C84.6336 71.6231 83.4611 73.1741 86.0188 76.509C87.3497 78.1802 88.4625 80.014 89.3303 81.9662" stroke="#0C1523" stroke-width="2.09375" stroke-linecap="round" stroke-linejoin="round"/>
<path d="M92.1929 81.3496C89.538 83.776 87.8155 87.0546 87.3236 90.6174" stroke="#0C1523" stroke-width="2.09375" stroke-linecap="round" stroke-linejoin="round"/>
<path d="M93.7523 84.085C92.6703 88.0631 93.3704 91.3411 96.7439 93.3779" stroke="#0C1523" stroke-width="2.09375" stroke-linecap="round" stroke-linejoin="round"/>
<path d="M192.537 122.913C192.785 124.759 192.849 126.625 192.728 128.482" stroke="#0C1523" stroke-width="2.09375" stroke-linecap="round" stroke-linejoin="round"/>
<path d="M171.31 101.367C163.258 96.845 158.878 89.7597 166.663 82.3361C173.474 76.5122 178.598 82.6226 181.144 87.8737" stroke="#0C1523" stroke-width="2.09375" stroke-linecap="round" stroke-linejoin="round"/>
<path d="M166.059 72.5662C165.048 71.7293 163.814 71.2063 162.509 71.0615C161.205 70.9168 159.886 71.1567 158.716 71.7517C157.546 72.3468 156.576 73.2709 155.925 74.4104C155.273 75.5499 154.969 76.855 155.05 78.165C155.131 79.4751 155.593 80.733 156.379 81.7837C157.166 82.8345 158.243 83.6324 159.477 84.0791C160.711 84.5258 162.049 84.6018 163.326 84.2979C164.603 83.9939 165.763 83.3232 166.663 82.3683C167.837 80.9679 168.429 79.1705 168.316 77.3467C168.204 75.5229 167.396 73.8118 166.059 72.5662Z" stroke="#0C1523" stroke-width="2.09375" stroke-linecap="round" stroke-linejoin="round"/>
<path d="M140.344 124.727C138.94 124.248 138.306 121.88 138.595 119.014" stroke="#0C1523" stroke-width="2.09375" stroke-linecap="round" stroke-linejoin="round"/>
<path d="M145.532 121.449C128.081 115.885 99.2212 101.505 88.3102 95.1618C86.0171 93.8218 83.6889 92.5622 81.3724 91.2792C80.427 90.7588 79.4933 90.2176 78.5718 89.6561C74.6472 87.2541 74.8482 85.7416 79.7811 87.6193C81.644 88.3167 83.5746 88.818 85.5415 89.1151H85.5733C86.2265 89.2256 86.8848 89.2893 87.5464 89.306" stroke="#0C1523" stroke-width="2.09375" stroke-linecap="round" stroke-linejoin="round"/>
<path d="M255.519 80.6495C252.37 80.3815 252.304 76.5708 255.36 76.6077C257.619 76.6362 259.242 76.735 261.024 76.8305C264.048 76.998 263.984 81.018 261.502 81.095C259.501 81.0464 257.504 80.8977 255.519 80.6495Z" stroke="#0C1523" stroke-width="2.09375" stroke-linecap="round" stroke-linejoin="round"/>
<path d="M257.874 67.8876C258.988 67.8558 259.783 67.8725 260.865 67.8558C263.73 67.8139 263.825 71.8758 261.47 72.0885C260.251 72.1706 259.03 72.1706 257.81 72.0885" stroke="#0C1523" stroke-width="2.09375" stroke-linecap="round" stroke-linejoin="round"/>
<path d="M254.755 84.9777C251.732 84.631 251.732 80.936 254.691 81.0633C256.887 81.1587 258.445 81.2994 260.165 81.4452C263.06 81.6897 262.934 85.5824 260.547 85.5824C259.083 85.5824 257.556 85.2993 254.755 84.9777Z" stroke="#0C1523" stroke-width="2.09375" stroke-linecap="round" stroke-linejoin="round"/>
<path d="M257.78 72.1924C258.953 72.2242 259.944 72.318 261.09 72.3515C264.145 72.442 264.209 76.5206 261.663 76.6797C260.135 76.7752 258.512 76.5474 255.584 76.3933C255.256 76.3985 254.932 76.3245 254.639 76.1777C254.346 76.0309 254.092 75.8155 253.9 75.5498C253.708 75.2842 253.583 74.9761 253.535 74.6517C253.487 74.3273 253.518 73.9962 253.626 73.6865C253.772 73.2711 254.046 72.916 254.412 72.6698" stroke="#0C1523" stroke-width="2.09375" stroke-linecap="round" stroke-linejoin="round"/>
<path d="M198.934 99.3628C222.484 87.1101 250.299 65.3971 254.055 65.6601C258.478 65.97 258.085 66.1626 257.683 73.7436C257.584 75.5861 254.373 75.7804 253.8 69.8911C254.278 74.4136 252.209 77.4973 249.154 78.4839" stroke="#0C1523" stroke-width="2.09375" stroke-linecap="round" stroke-linejoin="round"/>
<path d="M259.974 85.5508C255.964 85.9327 250.872 85.869 244.221 90.7433C232.874 99.0709 221.047 106.722 208.8 113.657" stroke="#0C1523" stroke-width="2.09375" stroke-linecap="round" stroke-linejoin="round"/>
<path d="M156.443 130.064C157.588 130.414 158.648 130.679 159.699 130.965L157.752 133.665" stroke="#0C1523" stroke-width="2.09375" stroke-linecap="round" stroke-linejoin="round"/>
<path d="M156.443 130.064C158.092 134.329 159.271 138.761 159.96 143.281C165.593 149.105 179.469 153.752 184.918 150.506C188.164 139.786 192.237 136.152 192.746 128.483C198.857 125.396 205.508 121.736 209.359 118.235C209.359 111.17 205.063 102.825 198.952 99.3628C193.872 102.463 188.635 105.299 183.263 107.86C181.353 108.689 180.526 108.942 179.578 108.592C176.363 110.215 171.812 109.801 167.739 108.497C167.111 108.691 166.449 108.746 165.797 108.656C159.816 107.847 153.931 106.439 148.23 104.455C153.545 106.552 146.123 126.166 140.369 124.722C145.663 126.69 151.024 128.472 156.443 130.064Z" stroke="#0C1523" stroke-width="2.09375" stroke-linecap="round" stroke-linejoin="round"/>
<path d="M179.558 108.592C178.966 108.366 178.455 107.971 178.087 107.456C177.719 106.941 177.511 106.328 177.489 105.696C177.573 105.063 177.742 104.443 177.991 103.853C184.681 104.895 184.083 94.7798 181.142 87.8771C178.278 82.3395 173.662 83.9207 172.74 89.9139C172.595 90.8619 171.735 90.4884 171.054 89.9457C168.698 88.3226 167.075 92.4582 170.576 93.6307C171.033 96.1834 171.278 98.7713 171.308 101.364C171.291 104.61 170.767 107.562 167.712 108.493" stroke="#0C1523" stroke-width="2.09375" stroke-linecap="round" stroke-linejoin="round"/>
<path d="M137.257 326.625V294.609H201.925V326.625" stroke="#0C1523" stroke-width="2.09375" stroke-linecap="round" stroke-linejoin="round"/>
<path d="M72.5887 326.625V310.617H137.257V326.625" stroke="#0C1523" stroke-width="2.09375" stroke-linecap="round" stroke-linejoin="round"/>
<path d="M201.925 326.625V303.075H266.626V326.625" stroke="#0C1523" stroke-width="2.09375" stroke-linecap="round" stroke-linejoin="round"/>
<path d="M181.144 14.6763V53.3437C206.699 62.6366 232.255 44.0508 257.81 53.3437V14.6763C232.255 5.38338 206.693 23.9692 181.144 14.6763Z" stroke="#0C1523" stroke-width="2.09375" stroke-linecap="round" stroke-linejoin="round"/>
<path d="M248.517 296.9V303.074H223.853V296.9H248.517Z" stroke="#0C1523" stroke-width="2.09375" stroke-linecap="round" stroke-linejoin="round"/>
<path d="M218.793 241.684C218.801 245.747 220.227 249.68 222.824 252.806C225.42 255.931 229.026 258.053 233.018 258.806V296.9H239.415V258.806C243.414 258.065 247.027 255.947 249.626 252.819C252.225 249.691 253.646 245.751 253.641 241.684H218.793Z" stroke="#0C1523" stroke-width="2.09375" stroke-linecap="round" stroke-linejoin="round"/>
<path d="M223.598 253.682C220.335 253.81 217.099 253.045 214.239 251.469C211.378 249.893 209.003 247.566 207.368 244.739H219.088" stroke="#0C1523" stroke-width="2.09375" stroke-linecap="round" stroke-linejoin="round"/>
<path d="M248.931 253.682C252.194 253.81 255.43 253.045 258.291 251.469C261.151 249.893 263.527 247.566 265.162 244.739H253.482" stroke="#0C1523" stroke-width="2.09375" stroke-linecap="round" stroke-linejoin="round"/>
<path d="M234.928 160.721C234.929 161.829 234.601 162.913 233.986 163.834C233.37 164.756 232.495 165.474 231.471 165.897C230.361 166.357 229.132 166.448 227.966 166.156C226.801 165.864 225.76 165.205 224.997 164.276C224.235 163.347 223.791 162.198 223.732 160.998C223.673 159.798 224.002 158.61 224.669 157.611C225.337 156.612 226.308 155.854 227.439 155.449C228.57 155.044 229.802 155.013 230.952 155.362C232.102 155.711 233.109 156.42 233.825 157.385C234.541 158.35 234.928 159.52 234.928 160.721Z" stroke="#0C1523" stroke-width="2.09375" stroke-linecap="round" stroke-linejoin="round"/>
<path d="M239.497 250.567C239.497 251.052 239.389 251.531 239.182 251.969C238.974 252.407 238.672 252.794 238.297 253.102C237.922 253.41 237.484 253.63 237.013 253.748C236.543 253.866 236.052 253.879 235.576 253.784C234.94 253.657 234.357 253.344 233.898 252.885C233.44 252.426 233.127 251.842 233 251.207C232.873 250.57 232.937 249.911 233.185 249.311C233.433 248.712 233.854 248.2 234.394 247.84C235.024 247.418 235.782 247.227 236.537 247.302C237.292 247.377 237.998 247.711 238.534 248.248C239.149 248.863 239.496 249.697 239.497 250.567Z" stroke="#0C1523" stroke-width="2.09375" stroke-linecap="round" stroke-linejoin="round"/>
<path d="M129.093 48.3472V59.7723" stroke="#0C1523" stroke-width="2.09375" stroke-linecap="round" stroke-linejoin="round"/>
<path d="M134.807 54.0605H123.35" stroke="#0C1523" stroke-width="2.09375" stroke-linecap="round" stroke-linejoin="round"/>
<path d="M103.427 216.479L99.4808 225.277H106.673L102.727 234.078" stroke="#0C1523" stroke-width="2.09375" stroke-linecap="round" stroke-linejoin="round"/>
<path d="M110.213 149.745L129.492 172.497C132.929 176.698 135.634 176.538 138.689 172.529C144.384 165.05 154.793 151.97 163.479 146.114" stroke="#0C1523" stroke-width="2.09375" stroke-linecap="round" stroke-linejoin="round"/>
<path d="M107.596 151.365L128.887 175.902C129.579 176.704 130.443 177.34 131.415 177.762C132.387 178.184 133.441 178.381 134.5 178.339C135.559 178.295 136.594 178.013 137.529 177.514C138.463 177.015 139.273 176.312 139.899 175.456C146.068 167.019 156.734 153.497 165.74 147.45" stroke="#0C1523" stroke-width="2.09375" stroke-linecap="round" stroke-linejoin="round"/>
<path d="M166.663 178.129L160.68 261.543" stroke="#0C1523" stroke-width="2.09375" stroke-linecap="round" stroke-linejoin="round"/>
<path d="M111.161 310.49H94.9935L95.7573 305.525H110.397L111.161 310.49Z" stroke="#0C1523" stroke-width="2.09375" stroke-linecap="round" stroke-linejoin="round"/>
<path d="M96.5211 286.271C92.352 286.271 82.7727 281.1 82.7727 267.416H92.0337" stroke="#0C1523" stroke-width="2.09375" stroke-linecap="round" stroke-linejoin="round"/>
<path d="M105.655 275.641L107.055 280.288L103.077 277.519L99.0989 280.288L100.499 275.641L96.6165 272.714L101.486 272.586L103.077 268.003L104.668 272.586L109.537 272.714L105.655 275.641Z" stroke="#0C1523" stroke-width="2.09375" stroke-linecap="round" stroke-linejoin="round"/>
<path d="M110.397 305.52C105.337 303.738 104.668 301.924 104.636 296.8C104.794 294.793 105.451 292.856 106.546 291.167C111.084 284.319 114.184 278.906 114.184 263.638H91.9701C91.9701 278.211 94.7556 283.403 99.449 290.88C100.642 292.642 101.365 294.68 101.549 296.8C101.442 301.924 100.879 303.738 95.7891 305.52H110.397Z" stroke="#0C1523" stroke-width="2.09375" stroke-linecap="round" stroke-linejoin="round"/>
<path d="M109.76 286.271C113.961 286.271 123.35 281.078 123.35 267.398H114.12" stroke="#0C1523" stroke-width="2.09375" stroke-linecap="round" stroke-linejoin="round"/>
<path d="M291.608 326.625H44.3917" stroke="#0C1523" stroke-width="2.09375" stroke-linecap="round" stroke-linejoin="round"/>
<path d="M179.011 130.105C177.703 130.105 176.448 130.625 175.523 131.55C174.598 132.475 174.079 133.73 174.079 135.038C174.079 136.347 174.598 137.601 175.523 138.526C176.448 139.452 177.703 139.971 179.011 139.971C180.32 139.971 181.574 139.452 182.5 138.526C183.425 137.601 183.944 136.347 183.944 135.038C183.944 133.73 183.425 132.475 182.5 131.55C181.574 130.625 180.32 130.105 179.011 130.105Z" stroke="#0C1523" stroke-width="2.09375"/>
<circle cx="137.641" cy="351.188" r="4.1875" fill="#F0F1F3"/>
<circle cx="152.297" cy="351.188" r="4.1875" fill="#F0F1F3"/>
<circle cx="166.953" cy="351.188" r="4.1875" fill="#F0F1F3"/>
<rect x="177.422" y="347" width="25.125" height="8.375" rx="4.1875" fill="#3787FF"/>
</svg>
